SplineFontDB: 3.2
FontName: DeterminationSansWeb
FullName: Determination Sans Web Regular
FamilyName: Determination Sans Web
Weight: Book
Copyright: 8-bit Operator (c) 2009 - 2014 Grand Chaos Productions.\nBased on spritesheet by Leafia_Barrett.\nModified by theFIZZYnator.\nUndertale is copyright and intellectual property of Toby Fox.
Version: 1
ItalicAngle: 0
UnderlinePosition: -576
UnderlineWidth: 128
Ascent: 1638
Descent: 410
InvalidEm: 0
sfntRevision: 0x00010000
LayerCount: 2
Layer: 0 1 "Back" 1
Layer: 1 1 "Fore" 0
XUID: [1021 737 319405113 6685805]
StyleMap: 0x0040
FSType: 4
OS2Version: 3
OS2_WeightWidthSlopeOnly: 0
OS2_UseTypoMetrics: 0
CreationTime: 1398116253
ModificationTime: 1624233692
PfmFamily: 81
TTFWeight: 400
TTFWidth: 5
LineGap: 0
VLineGap: 0
Panose: 0 0 0 0 0 0 0 0 0 0
OS2TypoAscent: 1638
OS2TypoAOffset: 0
OS2TypoDescent: -410
OS2TypoDOffset: 0
OS2TypoLinegap: 0
OS2WinAscent: 1664
OS2WinAOffset: 0
OS2WinDescent: 424
OS2WinDOffset: 0
HheadAscent: 1664
HheadAOffset: 0
HheadDescent: -424
HheadDOffset: 0
OS2SubXSize: 1792
OS2SubYSize: 1664
OS2SubXOff: 0
OS2SubYOff: 384
OS2SupXSize: 1792
OS2SupYSize: 1664
OS2SupXOff: 0
OS2SupYOff: 1280
OS2StrikeYSize: 128
OS2StrikeYPos: 640
OS2CapHeight: 1152
OS2XHeight: 896
OS2Vendor: 'UKYO'
OS2CodePages: 20000113.40000000
OS2UnicodeRanges: 8000002f.1000000a.00000000.00000000
MarkAttachClasses: 1
DEI: 91125
TtTable: prep
PUSHW_1
 511
SCANCTRL
PUSHB_1
 1
SCANTYPE
SVTCA[y-axis]
MPPEM
PUSHB_1
 8
LT
IF
PUSHB_2
 1
 1
INSTCTRL
EIF
PUSHB_2
 70
 6
CALL
IF
POP
PUSHB_1
 16
EIF
MPPEM
PUSHB_1
 20
GT
IF
POP
PUSHB_1
 128
EIF
SCVTCI
PUSHB_1
 6
CALL
NOT
IF
SVTCA[y-axis]
PUSHB_1
 1
DUP
RCVT
PUSHB_1
 3
CALL
WCVTP
PUSHB_1
 2
DUP
RCVT
PUSHB_3
 1
 16
 2
CALL
PUSHB_1
 3
CALL
WCVTP
PUSHB_1
 3
DUP
RCVT
PUSHB_3
 2
 11
 2
CALL
PUSHB_1
 3
CALL
WCVTP
SVTCA[x-axis]
PUSHB_1
 4
DUP
RCVT
PUSHB_1
 3
CALL
WCVTP
PUSHB_1
 5
DUP
RCVT
PUSHW_3
 4
 32767
 2
CALL
PUSHB_2
 3
 70
SROUND
CALL
WCVTP
PUSHB_1
 6
DUP
RCVT
PUSHB_3
 5
 11
 2
CALL
PUSHB_2
 3
 70
SROUND

StartChar: .notdef
Encoding: 65536 -1 0
Width: 748
Flags: W
LayerCount: 2
Fore
SplineSet
68 0 m 1,0,-1
 68 1365 l 1,1,-1
 612 1365 l 1,2,-1
 612 0 l 1,3,-1
 68 0 l 1,0,-1
136 68 m 1,4,-1
 544 68 l 1,5,-1
 544 1297 l 1,6,-1
 136 1297 l 1,7,-1
 136 68 l 1,4,-1
EndSplineSet
EndChar

StartChar: exclam
Encoding: 33 33 4
Width: 640
GlyphClass: 2
Flags: W
LayerCount: 2
Fore
SplineSet
0 768 m 1,0,-1
 0 1152 l 1,1,-1
 128 1152 l 1,2,-1
 128 1280 l 1,3,-1
 384 1280 l 1,4,-1
 384 1152 l 1,5,-1
 512 1152 l 1,6,-1
 512 768 l 1,7,-1
 384 768 l 1,8,-1
 384 384 l 1,9,-1
 128 384 l 1,10,-1
 128 768 l 1,11,-1
 0 768 l 1,0,-1
128 0 m 1,12,-1
 128 256 l 1,13,-1
 384 256 l 1,14,-1
 384 0 l 1,15,-1
 128 0 l 1,12,-1
EndSplineSet
EndChar

StartChar: quotedbl
Encoding: 34 34 5
Width: 768
GlyphClass: 2
Flags: W
LayerCount: 2
Fore
SplineSet
0 640 m 1,0,-1
 0 768 l 1,1,-1
 128 768 l 1,2,-1
 128 640 l 1,3,-1
 0 640 l 1,0,-1
0 896 m 1,4,-1
 0 1152 l 1,5,-1
 256 1152 l 1,6,-1
 256 768 l 1,7,-1
 128 768 l 1,8,-1
 128 896 l 1,9,-1
 0 896 l 1,4,-1
384 640 m 1,10,-1
 384 768 l 1,11,-1
 512 768 l 1,12,-1
 512 640 l 1,13,-1
 384 640 l 1,10,-1
384 896 m 1,14,-1
 384 1152 l 1,15,-1
 640 1152 l 1,16,-1
 640 768 l 1,17,-1
 512 768 l 1,18,-1
 512 896 l 1,19,-1
 384 896 l 1,14,-1
EndSplineSet
EndChar

StartChar: numbersign
Encoding: 35 35 6
Width: 1024
GlyphClass: 2
Flags: W
LayerCount: 2
Fore
SplineSet
0 256 m 1,0,-1
 0 384 l 1,1,-1
 128 384 l 1,2,-1
 128 768 l 1,3,-1
 0 768 l 1,4,-1
 0 896 l 1,5,-1
 128 896 l 1,6,-1
 128 1152 l 1,7,-1
 384 1152 l 1,8,-1
 384 896 l 1,9,-1
 512 896 l 1,10,-1
 512 1152 l 1,11,-1
 768 1152 l 1,12,-1
 768 896 l 1,13,-1
 896 896 l 1,14,-1
 896 768 l 1,15,-1
 768 768 l 1,16,-1
 768 384 l 1,17,-1
 896 384 l 1,18,-1
 896 256 l 1,19,-1
 768 256 l 1,20,-1
 768 0 l 1,21,-1
 512 0 l 1,22,-1
 512 256 l 1,23,-1
 384 256 l 1,24,-1
 384 0 l 1,25,-1
 128 0 l 1,26,-1
 128 256 l 1,27,-1
 0 256 l 1,0,-1
384 384 m 1,28,-1
 512 384 l 1,29,-1
 512 768 l 1,30,-1
 384 768 l 1,31,-1
 384 384 l 1,28,-1
EndSplineSet
EndChar

StartChar: dollar
Encoding: 36 36 7
Width: 896
GlyphClass: 2
Flags: W
LayerCount: 2
Fore
SplineSet
0 128 m 1,0,-1
 0 384 l 1,1,-1
 256 384 l 1,2,-1
 256 128 l 1,3,-1
 512 128 l 1,4,-1
 512 512 l 1,5,-1
 128 512 l 1,6,-1
 128 640 l 1,7,-1
 0 640 l 1,8,-1
 0 1024 l 1,9,-1
 128 1024 l 1,10,-1
 128 1152 l 1,11,-1
 256 1152 l 1,12,-1
 256 1408 l 1,13,-1
 512 1408 l 1,14,-1
 512 1152 l 1,15,-1
 640 1152 l 1,16,-1
 640 1024 l 1,17,-1
 768 1024 l 1,18,-1
 768 768 l 1,19,-1
 512 768 l 1,20,-1
 512 1024 l 1,21,-1
 256 1024 l 1,22,-1
 256 640 l 1,23,-1
 640 640 l 1,24,-1
 640 512 l 1,25,-1
 768 512 l 1,26,-1
 768 128 l 1,27,-1
 640 128 l 1,28,-1
 640 0 l 1,29,-1
 512 0 l 1,30,-1
 512 -256 l 1,31,-1
 256 -256 l 1,32,-1
 256 0 l 1,33,-1
 128 0 l 1,34,-1
 128 128 l 1,35,-1
 0 128 l 1,0,-1
EndSplineSet
EndChar

StartChar: percent
Encoding: 37 37 8
Width: 1024
GlyphClass: 2
Flags: W
LayerCount: 2
Fore
SplineSet
0 128 m 1,0,-1
 0 256 l 1,1,-1
 128 256 l 1,2,-1
 128 128 l 1,3,-1
 0 128 l 1,0,-1
0 768 m 1,4,-1
 0 1024 l 1,5,-1
 128 1024 l 1,6,-1
 128 768 l 1,7,-1
 0 768 l 1,4,-1
128 256 m 1,8,-1
 128 384 l 1,9,-1
 256 384 l 1,10,-1
 256 512 l 1,11,-1
 384 512 l 1,12,-1
 384 640 l 1,13,-1
 512 640 l 1,14,-1
 512 768 l 1,15,-1
 640 768 l 1,16,-1
 640 896 l 1,17,-1
 768 896 l 1,18,-1
 768 768 l 1,19,-1
 640 768 l 1,20,-1
 640 640 l 1,21,-1
 512 640 l 1,22,-1
 512 512 l 1,23,-1
 384 512 l 1,24,-1
 384 384 l 1,25,-1
 256 384 l 1,26,-1
 256 256 l 1,27,-1
 128 256 l 1,8,-1
128 640 m 1,28,-1
 128 768 l 1,29,-1
 384 768 l 1,30,-1
 384 640 l 1,31,-1
 128 640 l 1,28,-1
128 1024 m 1,32,-1
 128 1152 l 1,33,-1
 384 1152 l 1,34,-1
 384 1024 l 1,35,-1
 128 1024 l 1,32,-1
384 128 m 1,36,-1
 384 384 l 1,37,-1
 512 384 l 1,38,-1
 512 128 l 1,39,-1
 384 128 l 1,36,-1
384 768 m 1,40,-1
 384 1024 l 1,41,-1
 512 1024 l 1,42,-1
 512 768 l 1,43,-1
 384 768 l 1,40,-1
512 0 m 1,44,-1
 512 128 l 1,45,-1
 768 128 l 1,46,-1
 768 0 l 1,47,-1
 512 0 l 1,44,-1
512 384 m 1,48,-1
 512 512 l 1,49,-1
 768 512 l 1,50,-1
 768 384 l 1,51,-1
 512 384 l 1,48,-1
768 128 m 1,52,-1
 768 384 l 1,53,-1
 896 384 l 1,54,-1
 896 128 l 1,55,-1
 768 128 l 1,52,-1
768 896 m 1,56,-1
 768 1024 l 1,57,-1
 896 1024 l 1,58,-1
 896 896 l 1,59,-1
 768 896 l 1,56,-1
EndSplineSet
EndChar

StartChar: ampersand
Encoding: 38 38 9
Width: 1024
GlyphClass: 2
Flags: W
LayerCount: 2
Fore
SplineSet
0 128 m 1,0,-1
 0 512 l 1,1,-1
 128 512 l 1,2,-1
 128 640 l 1,3,-1
 256 640 l 1,4,-1
 256 768 l 1,5,-1
 128 768 l 1,6,-1
 128 1024 l 1,7,-1
 256 1024 l 1,8,-1
 256 1152 l 1,9,-1
 640 1152 l 1,10,-1
 640 1024 l 1,11,-1
 768 1024 l 1,12,-1
 768 768 l 1,13,-1
 640 768 l 1,14,-1
 640 640 l 1,15,-1
 512 640 l 1,16,-1
 512 512 l 1,17,-1
 896 512 l 1,18,-1
 896 384 l 1,19,-1
 768 384 l 1,20,-1
 768 128 l 1,21,-1
 896 128 l 1,22,-1
 896 0 l 1,23,-1
 640 0 l 1,24,-1
 640 128 l 1,25,-1
 512 128 l 1,26,-1
 512 0 l 1,27,-1
 128 0 l 1,28,-1
 128 128 l 1,29,-1
 0 128 l 1,0,-1
256 128 m 1,30,-1
 512 128 l 1,31,-1
 512 384 l 1,32,-1
 384 384 l 1,33,-1
 384 512 l 1,34,-1
 256 512 l 1,35,-1
 256 128 l 1,30,-1
384 768 m 1,36,-1
 512 768 l 1,37,-1
 512 1024 l 1,38,-1
 384 1024 l 1,39,-1
 384 768 l 1,36,-1
EndSplineSet
EndChar

StartChar: quotesingle
Encoding: 39 39 10
Width: 384
GlyphClass: 2
Flags: W
LayerCount: 2
Fore
SplineSet
0 640 m 1,0,-1
 0 768 l 1,1,-1
 128 768 l 1,2,-1
 128 640 l 1,3,-1
 0 640 l 1,0,-1
0 896 m 1,4,-1
 0 1152 l 1,5,-1
 256 1152 l 1,6,-1
 256 768 l 1,7,-1
 128 768 l 1,8,-1
 128 896 l 1,9,-1
 0 896 l 1,4,-1
EndSplineSet
EndChar

StartChar: parenleft
Encoding: 40 40 11
Width: 640
GlyphClass: 2
Flags: W
LayerCount: 2
Fore
SplineSet
0 256 m 1,0,-1
 0 896 l 1,1,-1
 128 896 l 1,2,-1
 128 1024 l 1,3,-1
 256 1024 l 1,4,-1
 256 1152 l 1,5,-1
 512 1152 l 1,6,-1
 512 1024 l 1,7,-1
 384 1024 l 1,8,-1
 384 896 l 1,9,-1
 256 896 l 1,10,-1
 256 256 l 1,11,-1
 384 256 l 1,12,-1
 384 128 l 1,13,-1
 512 128 l 1,14,-1
 512 0 l 1,15,-1
 256 0 l 1,16,-1
 256 128 l 1,17,-1
 128 128 l 1,18,-1
 128 256 l 1,19,-1
 0 256 l 1,0,-1
EndSplineSet
EndChar

StartChar: parenright
Encoding: 41 41 12
Width: 640
GlyphClass: 2
Flags: W
LayerCount: 2
Fore
SplineSet
0 0 m 1,0,-1
 0 128 l 1,1,-1
 128 128 l 1,2,-1
 128 256 l 1,3,-1
 256 256 l 1,4,-1
 256 896 l 1,5,-1
 128 896 l 1,6,-1
 128 1024 l 1,7,-1
 0 1024 l 1,8,-1
 0 1152 l 1,9,-1
 256 1152 l 1,10,-1
 256 1024 l 1,11,-1
 384 1024 l 1,12,-1
 384 896 l 1,13,-1
 512 896 l 1,14,-1
 512 256 l 1,15,-1
 384 256 l 1,16,-1
 384 128 l 1,17,-1
 256 128 l 1,18,-1
 256 0 l 1,19,-1
 0 0 l 1,0,-1
EndSplineSet
EndChar

StartChar: asterisk
Encoding: 42 42 13
Width: 1152
GlyphClass: 2
Flags: W
LayerCount: 2
Fore
SplineSet
0 512 m 1,0,-1
 0 640 l 1,1,-1
 256 640 l 1,2,-1
 256 768 l 1,3,-1
 128 768 l 1,4,-1
 128 896 l 1,5,-1
 384 896 l 1,6,-1
 384 768 l 1,7,-1
 640 768 l 1,8,-1
 640 896 l 1,9,-1
 896 896 l 1,10,-1
 896 768 l 1,11,-1
 768 768 l 1,12,-1
 768 640 l 1,13,-1
 1024 640 l 1,14,-1
 1024 512 l 1,15,-1
 768 512 l 1,16,-1
 768 384 l 1,17,-1
 896 384 l 1,18,-1
 896 256 l 1,19,-1
 640 256 l 1,20,-1
 640 384 l 1,21,-1
 384 384 l 1,22,-1
 384 256 l 1,23,-1
 128 256 l 1,24,-1
 128 384 l 1,25,-1
 256 384 l 1,26,-1
 256 512 l 1,27,-1
 0 512 l 1,0,-1
EndSplineSet
EndChar

StartChar: plus
Encoding: 43 43 14
Width: 896
GlyphClass: 2
Flags: W
LayerCount: 2
Fore
SplineSet
0 512 m 1,0,-1
 0 640 l 1,1,-1
 256 640 l 1,2,-1
 256 896 l 1,3,-1
 512 896 l 1,4,-1
 512 640 l 1,5,-1
 768 640 l 1,6,-1
 768 512 l 1,7,-1
 512 512 l 1,8,-1
 512 256 l 1,9,-1
 256 256 l 1,10,-1
 256 512 l 1,11,-1
 0 512 l 1,0,-1
EndSplineSet
EndChar

StartChar: comma
Encoding: 44 44 15
Width: 384
GlyphClass: 2
Flags: W
LayerCount: 2
Fore
SplineSet
0 0 m 1,0,-1
 0 256 l 1,1,-1
 256 256 l 1,2,-1
 256 -128 l 1,3,-1
 128 -128 l 1,4,-1
 128 0 l 1,5,-1
 0 0 l 1,0,-1
0 -128 m 1,6,-1
 128 -128 l 1,7,-1
 128 -256 l 1,8,-1
 0 -256 l 1,9,-1
 0 -128 l 1,6,-1
EndSplineSet
EndChar

StartChar: hyphen
Encoding: 45 45 16
Width: 640
GlyphClass: 2
Flags: W
LayerCount: 2
Fore
SplineSet
0 512 m 1,0,-1
 0 640 l 1,1,-1
 512 640 l 1,2,-1
 512 512 l 1,3,-1
 0 512 l 1,0,-1
EndSplineSet
EndChar

StartChar: period
Encoding: 46 46 17
Width: 384
GlyphClass: 2
Flags: W
LayerCount: 2
Fore
SplineSet
0 0 m 1,0,-1
 0 256 l 1,1,-1
 256 256 l 1,2,-1
 256 0 l 1,3,-1
 0 0 l 1,0,-1
EndSplineSet
EndChar

StartChar: slash
Encoding: 47 47 18
Width: 896
GlyphClass: 2
Flags: W
LayerCount: 2
Fore
SplineSet
0 -128 m 1,0,-1
 0 128 l 1,1,-1
 128 128 l 1,2,-1
 128 384 l 1,3,-1
 256 384 l 1,4,-1
 256 640 l 1,5,-1
 384 640 l 1,6,-1
 384 896 l 1,7,-1
 512 896 l 1,8,-1
 512 1152 l 1,9,-1
 768 1152 l 1,10,-1
 768 896 l 1,11,-1
 640 896 l 1,12,-1
 640 640 l 1,13,-1
 512 640 l 1,14,-1
 512 384 l 1,15,-1
 384 384 l 1,16,-1
 384 128 l 1,17,-1
 256 128 l 1,18,-1
 256 -128 l 1,19,-1
 0 -128 l 1,0,-1
EndSplineSet
EndChar

StartChar: zero
Encoding: 48 48 19
Width: 896
GlyphClass: 2
Flags: W
LayerCount: 2
Fore
SplineSet
0 128 m 1,0,-1
 0 1024 l 1,1,-1
 128 1024 l 1,2,-1
 128 1152 l 1,3,-1
 640 1152 l 1,4,-1
 640 1024 l 1,5,-1
 768 1024 l 1,6,-1
 768 128 l 1,7,-1
 640 128 l 1,8,-1
 640 0 l 1,9,-1
 128 0 l 1,10,-1
 128 128 l 1,11,-1
 0 128 l 1,0,-1
256 128 m 1,12,-1
 512 128 l 1,13,-1
 512 512 l 1,14,-1
 384 512 l 1,15,-1
 384 256 l 1,16,-1
 256 256 l 1,17,-1
 256 128 l 1,12,-1
256 640 m 1,18,-1
 384 640 l 1,19,-1
 384 896 l 1,20,-1
 512 896 l 1,21,-1
 512 1024 l 1,22,-1
 256 1024 l 1,23,-1
 256 640 l 1,18,-1
EndSplineSet
EndChar

StartChar: one
Encoding: 49 49 20
Width: 896
GlyphClass: 2
Flags: W
LayerCount: 2
Fore
SplineSet
0 0 m 1,0,-1
 0 128 l 1,1,-1
 256 128 l 1,2,-1
 256 896 l 1,3,-1
 0 896 l 1,4,-1
 0 1024 l 1,5,-1
 256 1024 l 1,6,-1
 256 1152 l 1,7,-1
 512 1152 l 1,8,-1
 512 128 l 1,9,-1
 768 128 l 1,10,-1
 768 0 l 1,11,-1
 0 0 l 1,0,-1
EndSplineSet
EndChar

StartChar: two
Encoding: 50 50 21
Width: 896
GlyphClass: 2
Flags: W
LayerCount: 2
Fore
SplineSet
0 0 m 1,0,-1
 0 256 l 1,1,-1
 128 256 l 1,2,-1
 128 384 l 1,3,-1
 256 384 l 1,4,-1
 256 512 l 1,5,-1
 384 512 l 1,6,-1
 384 640 l 1,7,-1
 512 640 l 1,8,-1
 512 1024 l 1,9,-1
 256 1024 l 1,10,-1
 256 768 l 1,11,-1
 0 768 l 1,12,-1
 0 1024 l 1,13,-1
 128 1024 l 1,14,-1
 128 1152 l 1,15,-1
 640 1152 l 1,16,-1
 640 1024 l 1,17,-1
 768 1024 l 1,18,-1
 768 640 l 1,19,-1
 640 640 l 1,20,-1
 640 512 l 1,21,-1
 512 512 l 1,22,-1
 512 384 l 1,23,-1
 384 384 l 1,24,-1
 384 256 l 1,25,-1
 256 256 l 1,26,-1
 256 128 l 1,27,-1
 768 128 l 1,28,-1
 768 0 l 1,29,-1
 0 0 l 1,0,-1
EndSplineSet
EndChar

StartChar: three
Encoding: 51 51 22
Width: 896
GlyphClass: 2
Flags: W
LayerCount: 2
Fore
SplineSet
0 128 m 1,0,-1
 0 384 l 1,1,-1
 256 384 l 1,2,-1
 256 128 l 1,3,-1
 512 128 l 1,4,-1
 512 512 l 1,5,-1
 256 512 l 1,6,-1
 256 640 l 1,7,-1
 512 640 l 1,8,-1
 512 1024 l 1,9,-1
 256 1024 l 1,10,-1
 256 768 l 1,11,-1
 0 768 l 1,12,-1
 0 1024 l 1,13,-1
 128 1024 l 1,14,-1
 128 1152 l 1,15,-1
 640 1152 l 1,16,-1
 640 1024 l 1,17,-1
 768 1024 l 1,18,-1
 768 640 l 1,19,-1
 640 640 l 1,20,-1
 640 512 l 1,21,-1
 768 512 l 1,22,-1
 768 128 l 1,23,-1
 640 128 l 1,24,-1
 640 0 l 1,25,-1
 128 0 l 1,26,-1
 128 128 l 1,27,-1
 0 128 l 1,0,-1
EndSplineSet
EndChar

StartChar: four
Encoding: 52 52 23
Width: 896
GlyphClass: 2
Flags: W
LayerCount: 2
Fore
SplineSet
0 256 m 1,0,-1
 0 640 l 1,1,-1
 128 640 l 1,2,-1
 128 768 l 1,3,-1
 256 768 l 1,4,-1
 256 896 l 1,5,-1
 384 896 l 1,6,-1
 384 1024 l 1,7,-1
 512 1024 l 1,8,-1
 512 1152 l 1,9,-1
 768 1152 l 1,10,-1
 768 0 l 1,11,-1
 512 0 l 1,12,-1
 512 256 l 1,13,-1
 0 256 l 1,0,-1
256 384 m 1,14,-1
 512 384 l 1,15,-1
 512 768 l 1,16,-1
 384 768 l 1,17,-1
 384 640 l 1,18,-1
 256 640 l 1,19,-1
 256 384 l 1,14,-1
EndSplineSet
EndChar

StartChar: five
Encoding: 53 53 24
Width: 896
GlyphClass: 2
Flags: W
LayerCount: 2
Fore
SplineSet
0 128 m 1,0,-1
 0 384 l 1,1,-1
 256 384 l 1,2,-1
 256 128 l 1,3,-1
 512 128 l 1,4,-1
 512 512 l 1,5,-1
 0 512 l 1,6,-1
 0 1152 l 1,7,-1
 768 1152 l 1,8,-1
 768 1024 l 1,9,-1
 256 1024 l 1,10,-1
 256 640 l 1,11,-1
 640 640 l 1,12,-1
 640 512 l 1,13,-1
 768 512 l 1,14,-1
 768 128 l 1,15,-1
 640 128 l 1,16,-1
 640 0 l 1,17,-1
 128 0 l 1,18,-1
 128 128 l 1,19,-1
 0 128 l 1,0,-1
EndSplineSet
EndChar

StartChar: six
Encoding: 54 54 25
Width: 896
GlyphClass: 2
Flags: W
LayerCount: 2
Fore
SplineSet
0 128 m 1,0,-1
 0 896 l 1,1,-1
 256 896 l 1,2,-1
 256 640 l 1,3,-1
 640 640 l 1,4,-1
 640 512 l 1,5,-1
 768 512 l 1,6,-1
 768 128 l 1,7,-1
 640 128 l 1,8,-1
 640 0 l 1,9,-1
 128 0 l 1,10,-1
 128 128 l 1,11,-1
 0 128 l 1,0,-1
128 896 m 1,12,-1
 128 1024 l 1,13,-1
 384 1024 l 1,14,-1
 384 896 l 1,15,-1
 128 896 l 1,12,-1
256 128 m 1,16,-1
 512 128 l 1,17,-1
 512 512 l 1,18,-1
 256 512 l 1,19,-1
 256 128 l 1,16,-1
256 1024 m 1,20,-1
 256 1152 l 1,21,-1
 768 1152 l 1,22,-1
 768 1024 l 1,23,-1
 256 1024 l 1,20,-1
EndSplineSet
EndChar

StartChar: seven
Encoding: 55 55 26
Width: 896
GlyphClass: 2
Flags: W
LayerCount: 2
Fore
SplineSet
0 1024 m 1,0,-1
 0 1152 l 1,1,-1
 768 1152 l 1,2,-1
 768 768 l 1,3,-1
 640 768 l 1,4,-1
 640 512 l 1,5,-1
 512 512 l 1,6,-1
 512 0 l 1,7,-1
 256 0 l 1,8,-1
 256 512 l 1,9,-1
 384 512 l 1,10,-1
 384 768 l 1,11,-1
 512 768 l 1,12,-1
 512 1024 l 1,13,-1
 0 1024 l 1,0,-1
EndSplineSet
EndChar

StartChar: eight
Encoding: 56 56 27
Width: 896
GlyphClass: 2
Flags: W
LayerCount: 2
Fore
SplineSet
0 128 m 1,0,-1
 0 512 l 1,1,-1
 128 512 l 1,2,-1
 128 640 l 1,3,-1
 0 640 l 1,4,-1
 0 1024 l 1,5,-1
 128 1024 l 1,6,-1
 128 1152 l 1,7,-1
 640 1152 l 1,8,-1
 640 1024 l 1,9,-1
 768 1024 l 1,10,-1
 768 640 l 1,11,-1
 640 640 l 1,12,-1
 640 512 l 1,13,-1
 768 512 l 1,14,-1
 768 128 l 1,15,-1
 640 128 l 1,16,-1
 640 0 l 1,17,-1
 128 0 l 1,18,-1
 128 128 l 1,19,-1
 0 128 l 1,0,-1
256 128 m 1,20,-1
 512 128 l 1,21,-1
 512 512 l 1,22,-1
 256 512 l 1,23,-1
 256 128 l 1,20,-1
256 640 m 1,24,-1
 512 640 l 1,25,-1
 512 1024 l 1,26,-1
 256 1024 l 1,27,-1
 256 640 l 1,24,-1
EndSplineSet
EndChar

StartChar: nine
Encoding: 57 57 28
Width: 896
GlyphClass: 2
Flags: W
LayerCount: 2
Fore
SplineSet
0 640 m 1,0,-1
 0 1024 l 1,1,-1
 128 1024 l 1,2,-1
 128 1152 l 1,3,-1
 640 1152 l 1,4,-1
 640 1024 l 1,5,-1
 768 1024 l 1,6,-1
 768 256 l 1,7,-1
 640 256 l 1,8,-1
 640 128 l 1,9,-1
 512 128 l 1,10,-1
 512 0 l 1,11,-1
 128 0 l 1,12,-1
 128 128 l 1,13,-1
 384 128 l 1,14,-1
 384 256 l 1,15,-1
 512 256 l 1,16,-1
 512 512 l 1,17,-1
 128 512 l 1,18,-1
 128 640 l 1,19,-1
 0 640 l 1,0,-1
256 640 m 1,20,-1
 512 640 l 1,21,-1
 512 1024 l 1,22,-1
 256 1024 l 1,23,-1
 256 640 l 1,20,-1
EndSplineSet
EndChar

StartChar: colon
Encoding: 58 58 29
Width: 384
GlyphClass: 2
Flags: W
LayerCount: 2
Fore
SplineSet
0 0 m 1,0,-1
 0 256 l 1,1,-1
 256 256 l 1,2,-1
 256 0 l 1,3,-1
 0 0 l 1,0,-1
0 640 m 1,4,-1
 0 896 l 1,5,-1
 256 896 l 1,6,-1
 256 640 l 1,7,-1
 0 640 l 1,4,-1
EndSplineSet
EndChar

StartChar: semicolon
Encoding: 59 59 30
Width: 384
GlyphClass: 2
Flags: W
LayerCount: 2
Fore
SplineSet
0 0 m 1,0,-1
 0 256 l 1,1,-1
 256 256 l 1,2,-1
 256 -128 l 1,3,-1
 128 -128 l 1,4,-1
 128 0 l 1,5,-1
 0 0 l 1,0,-1
0 -128 m 1,6,-1
 0 -256 l 1,7,-1
 128 -256 l 1,8,-1
 128 -128 l 1,9,-1
 0 -128 l 1,6,-1
0 640 m 1,10,-1
 0 896 l 1,11,-1
 256 896 l 1,12,-1
 256 640 l 1,13,-1
 0 640 l 1,10,-1
EndSplineSet
EndChar

StartChar: less
Encoding: 60 60 31
Width: 768
GlyphClass: 2
Flags: W
LayerCount: 2
Fore
SplineSet
0 512 m 1,0,-1
 0 640 l 1,1,-1
 128 640 l 1,2,-1
 128 768 l 1,3,-1
 256 768 l 1,4,-1
 256 896 l 1,5,-1
 384 896 l 1,6,-1
 384 1024 l 1,7,-1
 512 1024 l 1,8,-1
 512 1152 l 1,9,-1
 640 1152 l 1,10,-1
 640 896 l 1,11,-1
 512 896 l 1,12,-1
 512 768 l 1,13,-1
 384 768 l 1,14,-1
 384 640 l 1,15,-1
 256 640 l 1,16,-1
 256 512 l 1,17,-1
 384 512 l 1,18,-1
 384 384 l 1,19,-1
 512 384 l 1,20,-1
 512 256 l 1,21,-1
 640 256 l 1,22,-1
 640 0 l 1,23,-1
 512 0 l 1,24,-1
 512 128 l 1,25,-1
 384 128 l 1,26,-1
 384 256 l 1,27,-1
 256 256 l 1,28,-1
 256 384 l 1,29,-1
 128 384 l 1,30,-1
 128 512 l 1,31,-1
 0 512 l 1,0,-1
EndSplineSet
EndChar

StartChar: equal
Encoding: 61 61 32
Width: 896
GlyphClass: 2
Flags: W
LayerCount: 2
Fore
SplineSet
0 384 m 1,0,-1
 0 512 l 1,1,-1
 768 512 l 1,2,-1
 768 384 l 1,3,-1
 0 384 l 1,0,-1
0 640 m 1,4,-1
 0 768 l 1,5,-1
 768 768 l 1,6,-1
 768 640 l 1,7,-1
 0 640 l 1,4,-1
EndSplineSet
EndChar

StartChar: greater
Encoding: 62 62 33
Width: 768
GlyphClass: 2
Flags: W
LayerCount: 2
Fore
SplineSet
0 0 m 1,0,-1
 0 256 l 1,1,-1
 128 256 l 1,2,-1
 128 384 l 1,3,-1
 256 384 l 1,4,-1
 256 512 l 1,5,-1
 384 512 l 1,6,-1
 384 640 l 1,7,-1
 256 640 l 1,8,-1
 256 768 l 1,9,-1
 128 768 l 1,10,-1
 128 896 l 1,11,-1
 0 896 l 1,12,-1
 0 1152 l 1,13,-1
 128 1152 l 1,14,-1
 128 1024 l 1,15,-1
 256 1024 l 1,16,-1
 256 896 l 1,17,-1
 384 896 l 1,18,-1
 384 768 l 1,19,-1
 512 768 l 1,20,-1
 512 640 l 1,21,-1
 640 640 l 1,22,-1
 640 512 l 1,23,-1
 512 512 l 1,24,-1
 512 384 l 1,25,-1
 384 384 l 1,26,-1
 384 256 l 1,27,-1
 256 256 l 1,28,-1
 256 128 l 1,29,-1
 128 128 l 1,30,-1
 128 0 l 1,31,-1
 0 0 l 1,0,-1
EndSplineSet
EndChar

StartChar: question
Encoding: 63 63 34
Width: 896
GlyphClass: 2
Flags: W
LayerCount: 2
Fore
SplineSet
0 768 m 1,0,-1
 0 1024 l 1,1,-1
 128 1024 l 1,2,-1
 128 1152 l 1,3,-1
 640 1152 l 1,4,-1
 640 1024 l 1,5,-1
 768 1024 l 1,6,-1
 768 640 l 1,7,-1
 640 640 l 1,8,-1
 640 512 l 1,9,-1
 512 512 l 1,10,-1
 512 384 l 1,11,-1
 256 384 l 1,12,-1
 256 512 l 1,13,-1
 384 512 l 1,14,-1
 384 640 l 1,15,-1
 512 640 l 1,16,-1
 512 1024 l 1,17,-1
 256 1024 l 1,18,-1
 256 768 l 1,19,-1
 0 768 l 1,0,-1
256 0 m 1,20,-1
 256 256 l 1,21,-1
 512 256 l 1,22,-1
 512 0 l 1,23,-1
 256 0 l 1,20,-1
EndSplineSet
EndChar

StartChar: at
Encoding: 64 64 35
Width: 896
GlyphClass: 2
Flags: W
LayerCount: 2
Fore
SplineSet
0 128 m 1,0,-1
 0 1024 l 1,1,-1
 128 1024 l 1,2,-1
 128 1152 l 1,3,-1
 640 1152 l 1,4,-1
 640 1024 l 1,5,-1
 768 1024 l 1,6,-1
 768 384 l 1,7,-1
 384 384 l 1,8,-1
 384 768 l 1,9,-1
 512 768 l 1,10,-1
 512 1024 l 1,11,-1
 256 1024 l 1,12,-1
 256 128 l 1,13,-1
 768 128 l 1,14,-1
 768 0 l 1,15,-1
 128 0 l 1,16,-1
 128 128 l 1,17,-1
 0 128 l 1,0,-1
EndSplineSet
EndChar

StartChar: A
Encoding: 65 65 36
Width: 896
GlyphClass: 2
Flags: W
LayerCount: 2
Fore
SplineSet
0 0 m 1,0,-1
 0 1024 l 1,1,-1
 128 1024 l 1,2,-1
 128 1152 l 1,3,-1
 640 1152 l 1,4,-1
 640 1024 l 1,5,-1
 768 1024 l 1,6,-1
 768 0 l 1,7,-1
 512 0 l 1,8,-1
 512 384 l 1,9,-1
 256 384 l 1,10,-1
 256 0 l 1,11,-1
 0 0 l 1,0,-1
256 512 m 1,12,-1
 512 512 l 1,13,-1
 512 1024 l 1,14,-1
 256 1024 l 1,15,-1
 256 512 l 1,12,-1
EndSplineSet
EndChar

StartChar: B
Encoding: 66 66 37
Width: 896
GlyphClass: 2
Flags: W
LayerCount: 2
Fore
SplineSet
0 0 m 1,0,-1
 0 1152 l 1,1,-1
 640 1152 l 1,2,-1
 640 1024 l 1,3,-1
 768 1024 l 1,4,-1
 768 640 l 1,5,-1
 640 640 l 1,6,-1
 640 512 l 1,7,-1
 768 512 l 1,8,-1
 768 128 l 1,9,-1
 640 128 l 1,10,-1
 640 0 l 1,11,-1
 0 0 l 1,0,-1
256 128 m 1,12,-1
 512 128 l 1,13,-1
 512 512 l 1,14,-1
 256 512 l 1,15,-1
 256 128 l 1,12,-1
256 640 m 1,16,-1
 512 640 l 1,17,-1
 512 1024 l 1,18,-1
 256 1024 l 1,19,-1
 256 640 l 1,16,-1
EndSplineSet
EndChar

StartChar: C
Encoding: 67 67 38
Width: 896
GlyphClass: 2
Flags: W
LayerCount: 2
Fore
SplineSet
0 128 m 1,0,-1
 0 1024 l 1,1,-1
 128 1024 l 1,2,-1
 128 1152 l 1,3,-1
 640 1152 l 1,4,-1
 640 1024 l 1,5,-1
 768 1024 l 1,6,-1
 768 768 l 1,7,-1
 512 768 l 1,8,-1
 512 1024 l 1,9,-1
 256 1024 l 1,10,-1
 256 128 l 1,11,-1
 512 128 l 1,12,-1
 512 384 l 1,13,-1
 768 384 l 1,14,-1
 768 128 l 1,15,-1
 640 128 l 1,16,-1
 640 0 l 1,17,-1
 128 0 l 1,18,-1
 128 128 l 1,19,-1
 0 128 l 1,0,-1
EndSplineSet
EndChar

StartChar: D
Encoding: 68 68 39
Width: 896
GlyphClass: 2
Flags: W
LayerCount: 2
Fore
SplineSet
0 0 m 1,0,-1
 0 1152 l 1,1,-1
 640 1152 l 1,2,-1
 640 1024 l 1,3,-1
 768 1024 l 1,4,-1
 768 128 l 1,5,-1
 640 128 l 1,6,-1
 640 0 l 1,7,-1
 0 0 l 1,0,-1
256 128 m 1,8,-1
 512 128 l 1,9,-1
 512 1024 l 1,10,-1
 256 1024 l 1,11,-1
 256 128 l 1,8,-1
EndSplineSet
EndChar

StartChar: E
Encoding: 69 69 40
Width: 896
GlyphClass: 2
Flags: W
LayerCount: 2
Fore
SplineSet
0 0 m 1,0,-1
 0 1152 l 1,1,-1
 768 1152 l 1,2,-1
 768 1024 l 1,3,-1
 256 1024 l 1,4,-1
 256 640 l 1,5,-1
 640 640 l 1,6,-1
 640 512 l 1,7,-1
 256 512 l 1,8,-1
 256 128 l 1,9,-1
 768 128 l 1,10,-1
 768 0 l 1,11,-1
 0 0 l 1,0,-1
EndSplineSet
EndChar

StartChar: F
Encoding: 70 70 41
Width: 896
GlyphClass: 2
Flags: W
LayerCount: 2
Fore
SplineSet
0 0 m 1,0,-1
 0 1152 l 1,1,-1
 768 1152 l 1,2,-1
 768 1024 l 1,3,-1
 256 1024 l 1,4,-1
 256 640 l 1,5,-1
 640 640 l 1,6,-1
 640 512 l 1,7,-1
 256 512 l 1,8,-1
 256 0 l 1,9,-1
 0 0 l 1,0,-1
EndSplineSet
EndChar

StartChar: G
Encoding: 71 71 42
Width: 896
GlyphClass: 2
Flags: W
LayerCount: 2
Fore
SplineSet
0 128 m 1,0,-1
 0 1024 l 1,1,-1
 128 1024 l 1,2,-1
 128 1152 l 1,3,-1
 640 1152 l 1,4,-1
 640 1024 l 1,5,-1
 768 1024 l 1,6,-1
 768 768 l 1,7,-1
 512 768 l 1,8,-1
 512 1024 l 1,9,-1
 256 1024 l 1,10,-1
 256 128 l 1,11,-1
 512 128 l 1,12,-1
 512 512 l 1,13,-1
 384 512 l 1,14,-1
 384 640 l 1,15,-1
 768 640 l 1,16,-1
 768 128 l 1,17,-1
 640 128 l 1,18,-1
 640 0 l 1,19,-1
 128 0 l 1,20,-1
 128 128 l 1,21,-1
 0 128 l 1,0,-1
EndSplineSet
EndChar

StartChar: H
Encoding: 72 72 43
Width: 896
GlyphClass: 2
Flags: W
LayerCount: 2
Fore
SplineSet
0 0 m 1,0,-1
 0 1152 l 1,1,-1
 256 1152 l 1,2,-1
 256 640 l 1,3,-1
 512 640 l 1,4,-1
 512 1152 l 1,5,-1
 768 1152 l 1,6,-1
 768 0 l 1,7,-1
 512 0 l 1,8,-1
 512 512 l 1,9,-1
 256 512 l 1,10,-1
 256 0 l 1,11,-1
 0 0 l 1,0,-1
EndSplineSet
EndChar

StartChar: I
Encoding: 73 73 44
Width: 896
GlyphClass: 2
Flags: W
LayerCount: 2
Fore
SplineSet
0 0 m 1,0,-1
 0 128 l 1,1,-1
 256 128 l 1,2,-1
 256 1024 l 1,3,-1
 0 1024 l 1,4,-1
 0 1152 l 1,5,-1
 768 1152 l 1,6,-1
 768 1024 l 1,7,-1
 512 1024 l 1,8,-1
 512 128 l 1,9,-1
 768 128 l 1,10,-1
 768 0 l 1,11,-1
 0 0 l 1,0,-1
EndSplineSet
EndChar

StartChar: J
Encoding: 74 74 45
Width: 896
GlyphClass: 2
Flags: W
LayerCount: 2
Fore
SplineSet
0 128 m 1,0,-1
 0 384 l 1,1,-1
 256 384 l 1,2,-1
 256 128 l 1,3,-1
 512 128 l 1,4,-1
 512 1024 l 1,5,-1
 256 1024 l 1,6,-1
 256 1152 l 1,7,-1
 768 1152 l 1,8,-1
 768 128 l 1,9,-1
 640 128 l 1,10,-1
 640 0 l 1,11,-1
 128 0 l 1,12,-1
 128 128 l 1,13,-1
 0 128 l 1,0,-1
EndSplineSet
EndChar

StartChar: K
Encoding: 75 75 46
Width: 896
GlyphClass: 2
Flags: W
LayerCount: 2
Fore
SplineSet
0 0 m 1,0,-1
 0 1152 l 1,1,-1
 256 1152 l 1,2,-1
 256 640 l 1,3,-1
 384 640 l 1,4,-1
 384 896 l 1,5,-1
 512 896 l 1,6,-1
 512 1152 l 1,7,-1
 768 1152 l 1,8,-1
 768 896 l 1,9,-1
 640 896 l 1,10,-1
 640 640 l 1,11,-1
 512 640 l 1,12,-1
 512 512 l 1,13,-1
 640 512 l 1,14,-1
 640 256 l 1,15,-1
 768 256 l 1,16,-1
 768 0 l 1,17,-1
 512 0 l 1,18,-1
 512 256 l 1,19,-1
 384 256 l 1,20,-1
 384 512 l 1,21,-1
 256 512 l 1,22,-1
 256 0 l 1,23,-1
 0 0 l 1,0,-1
EndSplineSet
EndChar

StartChar: L
Encoding: 76 76 47
Width: 896
GlyphClass: 2
Flags: W
LayerCount: 2
Fore
SplineSet
0 0 m 1,0,-1
 0 1152 l 1,1,-1
 256 1152 l 1,2,-1
 256 128 l 1,3,-1
 768 128 l 1,4,-1
 768 0 l 1,5,-1
 0 0 l 1,0,-1
EndSplineSet
EndChar

StartChar: M
Encoding: 77 77 48
Width: 1024
GlyphClass: 2
Flags: W
LayerCount: 2
Fore
SplineSet
0 0 m 1,0,-1
 0 1152 l 1,1,-1
 128 1152 l 1,2,-1
 128 1024 l 1,3,-1
 256 1024 l 1,4,-1
 256 896 l 1,5,-1
 384 896 l 1,6,-1
 384 768 l 1,7,-1
 512 768 l 1,8,-1
 512 896 l 1,9,-1
 640 896 l 1,10,-1
 640 1024 l 1,11,-1
 768 1024 l 1,12,-1
 768 1152 l 1,13,-1
 896 1152 l 1,14,-1
 896 0 l 1,15,-1
 640 0 l 1,16,-1
 640 640 l 1,17,-1
 512 640 l 1,18,-1
 512 512 l 1,19,-1
 384 512 l 1,20,-1
 384 640 l 1,21,-1
 256 640 l 1,22,-1
 256 0 l 1,23,-1
 0 0 l 1,0,-1
EndSplineSet
EndChar

StartChar: N
Encoding: 78 78 49
Width: 896
GlyphClass: 2
Flags: W
LayerCount: 2
Fore
SplineSet
0 0 m 1,0,-1
 0 1152 l 1,1,-1
 256 1152 l 1,2,-1
 256 896 l 1,3,-1
 384 896 l 1,4,-1
 384 640 l 1,5,-1
 256 640 l 1,6,-1
 256 0 l 1,7,-1
 0 0 l 1,0,-1
384 384 m 1,8,-1
 384 640 l 1,9,-1
 512 640 l 1,10,-1
 512 1152 l 1,11,-1
 768 1152 l 1,12,-1
 768 0 l 1,13,-1
 512 0 l 1,14,-1
 512 384 l 1,15,-1
 384 384 l 1,8,-1
EndSplineSet
EndChar

StartChar: O
Encoding: 79 79 50
Width: 896
GlyphClass: 2
Flags: W
LayerCount: 2
Fore
SplineSet
0 128 m 1,0,-1
 0 1024 l 1,1,-1
 128 1024 l 1,2,-1
 128 1152 l 1,3,-1
 640 1152 l 1,4,-1
 640 1024 l 1,5,-1
 768 1024 l 1,6,-1
 768 128 l 1,7,-1
 640 128 l 1,8,-1
 640 0 l 1,9,-1
 128 0 l 1,10,-1
 128 128 l 1,11,-1
 0 128 l 1,0,-1
256 128 m 1,12,-1
 512 128 l 1,13,-1
 512 1024 l 1,14,-1
 256 1024 l 1,15,-1
 256 128 l 1,12,-1
EndSplineSet
EndChar

StartChar: P
Encoding: 80 80 51
Width: 896
GlyphClass: 2
Flags: W
LayerCount: 2
Fore
SplineSet
0 0 m 1,0,-1
 0 1152 l 1,1,-1
 640 1152 l 1,2,-1
 640 1024 l 1,3,-1
 768 1024 l 1,4,-1
 768 640 l 1,5,-1
 640 640 l 1,6,-1
 640 512 l 1,7,-1
 256 512 l 1,8,-1
 256 0 l 1,9,-1
 0 0 l 1,0,-1
256 640 m 1,10,-1
 512 640 l 1,11,-1
 512 1024 l 1,12,-1
 256 1024 l 1,13,-1
 256 640 l 1,10,-1
EndSplineSet
EndChar

StartChar: Q
Encoding: 81 81 52
Width: 896
GlyphClass: 2
Flags: W
LayerCount: 2
Fore
SplineSet
0 128 m 1,0,-1
 0 1024 l 1,1,-1
 128 1024 l 1,2,-1
 128 1152 l 1,3,-1
 640 1152 l 1,4,-1
 640 1024 l 1,5,-1
 768 1024 l 1,6,-1
 768 128 l 1,7,-1
 640 128 l 1,8,-1
 640 0 l 1,9,-1
 512 0 l 1,10,-1
 512 -128 l 1,11,-1
 768 -128 l 1,12,-1
 768 -256 l 1,13,-1
 384 -256 l 1,14,-1
 384 -128 l 1,15,-1
 256 -128 l 1,16,-1
 256 0 l 1,17,-1
 128 0 l 1,18,-1
 128 128 l 1,19,-1
 0 128 l 1,0,-1
256 128 m 1,20,-1
 512 128 l 1,21,-1
 512 1024 l 1,22,-1
 256 1024 l 1,23,-1
 256 128 l 1,20,-1
EndSplineSet
EndChar

StartChar: R
Encoding: 82 82 53
Width: 896
GlyphClass: 2
Flags: W
LayerCount: 2
Fore
SplineSet
0 0 m 1,0,-1
 0 1152 l 1,1,-1
 640 1152 l 1,2,-1
 640 1024 l 1,3,-1
 768 1024 l 1,4,-1
 768 640 l 1,5,-1
 640 640 l 1,6,-1
 640 512 l 1,7,-1
 768 512 l 1,8,-1
 768 0 l 1,9,-1
 512 0 l 1,10,-1
 512 512 l 1,11,-1
 256 512 l 1,12,-1
 256 0 l 1,13,-1
 0 0 l 1,0,-1
256 640 m 1,14,-1
 512 640 l 1,15,-1
 512 1024 l 1,16,-1
 256 1024 l 1,17,-1
 256 640 l 1,14,-1
EndSplineSet
EndChar

StartChar: S
Encoding: 83 83 54
Width: 896
GlyphClass: 2
Flags: W
LayerCount: 2
Fore
SplineSet
0 128 m 1,0,-1
 0 384 l 1,1,-1
 256 384 l 1,2,-1
 256 128 l 1,3,-1
 512 128 l 1,4,-1
 512 512 l 1,5,-1
 128 512 l 1,6,-1
 128 640 l 1,7,-1
 0 640 l 1,8,-1
 0 1024 l 1,9,-1
 128 1024 l 1,10,-1
 128 1152 l 1,11,-1
 640 1152 l 1,12,-1
 640 1024 l 1,13,-1
 768 1024 l 1,14,-1
 768 768 l 1,15,-1
 512 768 l 1,16,-1
 512 1024 l 1,17,-1
 256 1024 l 1,18,-1
 256 640 l 1,19,-1
 640 640 l 1,20,-1
 640 512 l 1,21,-1
 768 512 l 1,22,-1
 768 128 l 1,23,-1
 640 128 l 1,24,-1
 640 0 l 1,25,-1
 128 0 l 1,26,-1
 128 128 l 1,27,-1
 0 128 l 1,0,-1
EndSplineSet
EndChar

StartChar: T
Encoding: 84 84 55
Width: 896
GlyphClass: 2
Flags: W
LayerCount: 2
Fore
SplineSet
0 1024 m 1,0,-1
 0 1152 l 1,1,-1
 768 1152 l 1,2,-1
 768 1024 l 1,3,-1
 512 1024 l 1,4,-1
 512 0 l 1,5,-1
 256 0 l 1,6,-1
 256 1024 l 1,7,-1
 0 1024 l 1,0,-1
EndSplineSet
EndChar

StartChar: U
Encoding: 85 85 56
Width: 896
GlyphClass: 2
Flags: W
LayerCount: 2
Fore
SplineSet
0 128 m 1,0,-1
 0 1152 l 1,1,-1
 256 1152 l 1,2,-1
 256 128 l 1,3,-1
 512 128 l 1,4,-1
 512 1152 l 1,5,-1
 768 1152 l 1,6,-1
 768 128 l 1,7,-1
 640 128 l 1,8,-1
 640 0 l 1,9,-1
 128 0 l 1,10,-1
 128 128 l 1,11,-1
 0 128 l 1,0,-1
EndSplineSet
EndChar

StartChar: V
Encoding: 86 86 57
Width: 896
GlyphClass: 2
Flags: W
LayerCount: 2
Fore
SplineSet
0 512 m 1,0,-1
 0 1152 l 1,1,-1
 256 1152 l 1,2,-1
 256 512 l 1,3,-1
 512 512 l 1,4,-1
 512 1152 l 1,5,-1
 768 1152 l 1,6,-1
 768 512 l 1,7,-1
 640 512 l 1,8,-1
 640 256 l 1,9,-1
 512 256 l 1,10,-1
 512 0 l 1,11,-1
 256 0 l 1,12,-1
 256 256 l 1,13,-1
 128 256 l 1,14,-1
 128 512 l 1,15,-1
 0 512 l 1,0,-1
EndSplineSet
EndChar

StartChar: W
Encoding: 87 87 58
Width: 1024
GlyphClass: 2
Flags: WO
LayerCount: 2
Fore
SplineSet
0 384 m 1,0,-1
 0 1152 l 1,1,-1
 256 1152 l 1,2,-1
 256 384 l 1,3,-1
 384 384 l 1,4,-1
 384 0 l 1,5,-1
 128 0 l 1,6,-1
 128 384 l 1,7,-1
 0 384 l 1,0,-1
384 384 m 1,8,-1
 384 896 l 1,9,-1
 512 896 l 1,10,-1
 512 384 l 1,11,-1
 384 384 l 1,8,-1
512 0 m 1,12,-1
 512 384 l 1,13,-1
 640 384 l 1,14,-1
 640 1152 l 1,15,-1
 896 1152 l 1,16,-1
 896 384 l 1,17,-1
 768 384 l 1,18,-1
 768 0 l 1,19,-1
 512 0 l 1,12,-1
EndSplineSet
EndChar

StartChar: X
Encoding: 88 88 59
Width: 896
GlyphClass: 2
Flags: W
LayerCount: 2
Fore
SplineSet
0 0 m 1,0,-1
 0 256 l 1,1,-1
 128 256 l 1,2,-1
 128 512 l 1,3,-1
 256 512 l 1,4,-1
 256 640 l 1,5,-1
 128 640 l 1,6,-1
 128 896 l 1,7,-1
 0 896 l 1,8,-1
 0 1152 l 1,9,-1
 256 1152 l 1,10,-1
 256 896 l 1,11,-1
 512 896 l 1,12,-1
 512 1152 l 1,13,-1
 768 1152 l 1,14,-1
 768 896 l 1,15,-1
 640 896 l 1,16,-1
 640 640 l 1,17,-1
 512 640 l 1,18,-1
 512 512 l 1,19,-1
 640 512 l 1,20,-1
 640 256 l 1,21,-1
 768 256 l 1,22,-1
 768 0 l 1,23,-1
 512 0 l 1,24,-1
 512 256 l 1,25,-1
 256 256 l 1,26,-1
 256 0 l 1,27,-1
 0 0 l 1,0,-1
EndSplineSet
EndChar

StartChar: Y
Encoding: 89 89 60
Width: 896
GlyphClass: 2
Flags: W
LayerCount: 2
Fore
SplineSet
0 640 m 1,0,-1
 0 1152 l 1,1,-1
 256 1152 l 1,2,-1
 256 640 l 1,3,-1
 512 640 l 1,4,-1
 512 1152 l 1,5,-1
 768 1152 l 1,6,-1
 768 640 l 1,7,-1
 640 640 l 1,8,-1
 640 512 l 1,9,-1
 512 512 l 1,10,-1
 512 0 l 1,11,-1
 256 0 l 1,12,-1
 256 512 l 1,13,-1
 128 512 l 1,14,-1
 128 640 l 1,15,-1
 0 640 l 1,0,-1
EndSplineSet
EndChar

StartChar: Z
Encoding: 90 90 61
Width: 896
GlyphClass: 2
Flags: W
LayerCount: 2
Fore
SplineSet
0 0 m 1,0,-1
 0 384 l 1,1,-1
 128 384 l 1,2,-1
 128 512 l 1,3,-1
 256 512 l 1,4,-1
 256 640 l 1,5,-1
 384 640 l 1,6,-1
 384 768 l 1,7,-1
 512 768 l 1,8,-1
 512 1024 l 1,9,-1
 0 1024 l 1,10,-1
 0 1152 l 1,11,-1
 768 1152 l 1,12,-1
 768 768 l 1,13,-1
 640 768 l 1,14,-1
 640 640 l 1,15,-1
 512 640 l 1,16,-1
 512 512 l 1,17,-1
 384 512 l 1,18,-1
 384 384 l 1,19,-1
 256 384 l 1,20,-1
 256 128 l 1,21,-1
 768 128 l 1,22,-1
 768 0 l 1,23,-1
 0 0 l 1,0,-1
EndSplineSet
EndChar

StartChar: bracketleft
Encoding: 91 91 62
Width: 640
GlyphClass: 2
Flags: W
LayerCount: 2
Fore
SplineSet
0 0 m 1,0,-1
 0 1152 l 1,1,-1
 512 1152 l 1,2,-1
 512 1024 l 1,3,-1
 256 1024 l 1,4,-1
 256 128 l 1,5,-1
 512 128 l 1,6,-1
 512 0 l 1,7,-1
 0 0 l 1,0,-1
EndSplineSet
EndChar

StartChar: backslash
Encoding: 92 92 63
Width: 640
GlyphClass: 2
Flags: W
LayerCount: 2
Fore
SplineSet
0 768 m 1,0,-1
 0 1152 l 1,1,-1
 256 1152 l 1,2,-1
 256 768 l 1,3,-1
 384 768 l 1,4,-1
 384 384 l 1,5,-1
 512 384 l 1,6,-1
 512 0 l 1,7,-1
 256 0 l 1,8,-1
 256 384 l 1,9,-1
 128 384 l 1,10,-1
 128 768 l 1,11,-1
 0 768 l 1,0,-1
EndSplineSet
EndChar

StartChar: bracketright
Encoding: 93 93 64
Width: 640
GlyphClass: 2
Flags: W
LayerCount: 2
Fore
SplineSet
0 0 m 1,0,-1
 0 128 l 1,1,-1
 256 128 l 1,2,-1
 256 1024 l 1,3,-1
 0 1024 l 1,4,-1
 0 1152 l 1,5,-1
 512 1152 l 1,6,-1
 512 0 l 1,7,-1
 0 0 l 1,0,-1
EndSplineSet
EndChar

StartChar: asciicircum
Encoding: 94 94 65
Width: 896
GlyphClass: 2
Flags: W
LayerCount: 2
Fore
SplineSet
0 640 m 1,0,-1
 0 896 l 1,1,-1
 128 896 l 1,2,-1
 128 1024 l 1,3,-1
 256 1024 l 1,4,-1
 256 1152 l 1,5,-1
 512 1152 l 1,6,-1
 512 1024 l 1,7,-1
 640 1024 l 1,8,-1
 640 896 l 1,9,-1
 768 896 l 1,10,-1
 768 640 l 1,11,-1
 640 640 l 1,12,-1
 640 768 l 1,13,-1
 512 768 l 1,14,-1
 512 896 l 1,15,-1
 256 896 l 1,16,-1
 256 768 l 1,17,-1
 128 768 l 1,18,-1
 128 640 l 1,19,-1
 0 640 l 1,0,-1
EndSplineSet
EndChar

StartChar: underscore
Encoding: 95 95 66
Width: 896
GlyphClass: 2
Flags: W
LayerCount: 2
Fore
SplineSet
0 -128 m 1,0,-1
 768 -128 l 1,1,-1
 768 -256 l 1,2,-1
 0 -256 l 1,3,-1
 0 -128 l 1,0,-1
EndSplineSet
EndChar

StartChar: grave
Encoding: 96 96 67
Width: 512
GlyphClass: 2
Flags: W
LayerCount: 2
Fore
SplineSet
0 1024 m 1,0,-1
 0 1152 l 1,1,-1
 256 1152 l 1,2,-1
 256 1024 l 1,3,-1
 384 1024 l 1,4,-1
 384 896 l 1,5,-1
 128 896 l 1,6,-1
 128 1024 l 1,7,-1
 0 1024 l 1,0,-1
EndSplineSet
EndChar

StartChar: a
Encoding: 97 97 68
Width: 896
GlyphClass: 2
Flags: W
LayerCount: 2
Fore
SplineSet
0 128 m 1,0,-1
 0 384 l 1,1,-1
 128 384 l 1,2,-1
 128 512 l 1,3,-1
 512 512 l 1,4,-1
 512 768 l 1,5,-1
 256 768 l 1,6,-1
 256 640 l 1,7,-1
 0 640 l 1,8,-1
 0 768 l 1,9,-1
 128 768 l 1,10,-1
 128 896 l 1,11,-1
 640 896 l 1,12,-1
 640 768 l 1,13,-1
 768 768 l 1,14,-1
 768 0 l 1,15,-1
 128 0 l 1,16,-1
 128 128 l 1,17,-1
 0 128 l 1,0,-1
256 128 m 1,18,-1
 512 128 l 1,19,-1
 512 384 l 1,20,-1
 256 384 l 1,21,-1
 256 128 l 1,18,-1
EndSplineSet
EndChar

StartChar: b
Encoding: 98 98 69
Width: 896
GlyphClass: 2
Flags: W
LayerCount: 2
Fore
SplineSet
0 0 m 1,0,-1
 0 1152 l 1,1,-1
 256 1152 l 1,2,-1
 256 896 l 1,3,-1
 640 896 l 1,4,-1
 640 768 l 1,5,-1
 768 768 l 1,6,-1
 768 128 l 1,7,-1
 640 128 l 1,8,-1
 640 0 l 1,9,-1
 0 0 l 1,0,-1
256 128 m 1,10,-1
 512 128 l 1,11,-1
 512 768 l 1,12,-1
 256 768 l 1,13,-1
 256 128 l 1,10,-1
EndSplineSet
EndChar

StartChar: c
Encoding: 99 99 70
Width: 896
GlyphClass: 2
Flags: W
LayerCount: 2
Fore
SplineSet
0 128 m 1,0,-1
 0 768 l 1,1,-1
 128 768 l 1,2,-1
 128 896 l 1,3,-1
 640 896 l 1,4,-1
 640 768 l 1,5,-1
 768 768 l 1,6,-1
 768 512 l 1,7,-1
 512 512 l 1,8,-1
 512 768 l 1,9,-1
 256 768 l 1,10,-1
 256 128 l 1,11,-1
 512 128 l 1,12,-1
 512 384 l 1,13,-1
 768 384 l 1,14,-1
 768 128 l 1,15,-1
 640 128 l 1,16,-1
 640 0 l 1,17,-1
 128 0 l 1,18,-1
 128 128 l 1,19,-1
 0 128 l 1,0,-1
EndSplineSet
EndChar

StartChar: d
Encoding: 100 100 71
Width: 896
GlyphClass: 2
Flags: W
LayerCount: 2
Fore
SplineSet
0 128 m 1,0,-1
 0 768 l 1,1,-1
 128 768 l 1,2,-1
 128 896 l 1,3,-1
 512 896 l 1,4,-1
 512 1152 l 1,5,-1
 768 1152 l 1,6,-1
 768 0 l 1,7,-1
 128 0 l 1,8,-1
 128 128 l 1,9,-1
 0 128 l 1,0,-1
256 128 m 1,10,-1
 512 128 l 1,11,-1
 512 768 l 1,12,-1
 256 768 l 1,13,-1
 256 128 l 1,10,-1
EndSplineSet
EndChar

StartChar: e
Encoding: 101 101 72
Width: 896
GlyphClass: 2
Flags: W
LayerCount: 2
Fore
SplineSet
0 128 m 1,0,-1
 0 768 l 1,1,-1
 128 768 l 1,2,-1
 128 896 l 1,3,-1
 640 896 l 1,4,-1
 640 768 l 1,5,-1
 768 768 l 1,6,-1
 768 384 l 1,7,-1
 256 384 l 1,8,-1
 256 128 l 1,9,-1
 512 128 l 1,10,-1
 512 256 l 1,11,-1
 768 256 l 1,12,-1
 768 128 l 1,13,-1
 640 128 l 1,14,-1
 640 0 l 1,15,-1
 128 0 l 1,16,-1
 128 128 l 1,17,-1
 0 128 l 1,0,-1
256 512 m 1,18,-1
 512 512 l 1,19,-1
 512 768 l 1,20,-1
 256 768 l 1,21,-1
 256 512 l 1,18,-1
EndSplineSet
EndChar

StartChar: f
Encoding: 102 102 73
Width: 896
GlyphClass: 2
Flags: W
LayerCount: 2
Fore
SplineSet
0 640 m 1,0,-1
 0 768 l 1,1,-1
 256 768 l 1,2,-1
 256 1024 l 1,3,-1
 384 1024 l 1,4,-1
 384 1152 l 1,5,-1
 768 1152 l 1,6,-1
 768 1024 l 1,7,-1
 512 1024 l 1,8,-1
 512 768 l 1,9,-1
 768 768 l 1,10,-1
 768 640 l 1,11,-1
 512 640 l 1,12,-1
 512 0 l 1,13,-1
 256 0 l 1,14,-1
 256 640 l 1,15,-1
 0 640 l 1,0,-1
EndSplineSet
EndChar

StartChar: g
Encoding: 103 103 74
Width: 896
GlyphClass: 2
Flags: W
LayerCount: 2
Fore
SplineSet
0 -128 m 1,0,-1
 256 -128 l 1,1,-1
 256 -256 l 1,2,-1
 512 -256 l 1,3,-1
 512 0 l 1,4,-1
 128 0 l 1,5,-1
 128 128 l 1,6,-1
 0 128 l 1,7,-1
 0 768 l 1,8,-1
 128 768 l 1,9,-1
 128 896 l 1,10,-1
 768 896 l 1,11,-1
 768 -256 l 1,12,-1
 640 -256 l 1,13,-1
 640 -384 l 1,14,-1
 128 -384 l 1,15,-1
 128 -256 l 1,16,-1
 0 -256 l 1,17,-1
 0 -128 l 1,0,-1
256 128 m 1,18,-1
 512 128 l 1,19,-1
 512 768 l 1,20,-1
 256 768 l 1,21,-1
 256 128 l 1,18,-1
EndSplineSet
EndChar

StartChar: h
Encoding: 104 104 75
Width: 896
GlyphClass: 2
Flags: W
LayerCount: 2
Fore
SplineSet
0 0 m 1,0,-1
 0 1152 l 1,1,-1
 256 1152 l 1,2,-1
 256 896 l 1,3,-1
 640 896 l 1,4,-1
 640 768 l 1,5,-1
 768 768 l 1,6,-1
 768 0 l 1,7,-1
 512 0 l 1,8,-1
 512 768 l 1,9,-1
 256 768 l 1,10,-1
 256 0 l 1,11,-1
 0 0 l 1,0,-1
EndSplineSet
EndChar

StartChar: i
Encoding: 105 105 76
Width: 896
GlyphClass: 2
Flags: W
LayerCount: 2
Fore
SplineSet
0 0 m 1,0,-1
 0 128 l 1,1,-1
 256 128 l 1,2,-1
 256 768 l 1,3,-1
 0 768 l 1,4,-1
 0 896 l 1,5,-1
 512 896 l 1,6,-1
 512 128 l 1,7,-1
 768 128 l 1,8,-1
 768 0 l 1,9,-1
 0 0 l 1,0,-1
256 1024 m 1,10,-1
 256 1280 l 1,11,-1
 512 1280 l 1,12,-1
 512 1024 l 1,13,-1
 256 1024 l 1,10,-1
EndSplineSet
EndChar

StartChar: j
Encoding: 106 106 77
Width: 896
GlyphClass: 2
Flags: W
LayerCount: 2
Fore
SplineSet
0 -128 m 1,0,-1
 256 -128 l 1,1,-1
 256 -256 l 1,2,-1
 512 -256 l 1,3,-1
 512 768 l 1,4,-1
 256 768 l 1,5,-1
 256 896 l 1,6,-1
 768 896 l 1,7,-1
 768 -256 l 1,8,-1
 640 -256 l 1,9,-1
 640 -384 l 1,10,-1
 128 -384 l 1,11,-1
 128 -256 l 1,12,-1
 0 -256 l 1,13,-1
 0 -128 l 1,0,-1
512 1024 m 1,14,-1
 512 1280 l 1,15,-1
 768 1280 l 1,16,-1
 768 1024 l 1,17,-1
 512 1024 l 1,14,-1
EndSplineSet
EndChar

StartChar: k
Encoding: 107 107 78
Width: 896
GlyphClass: 2
Flags: W
LayerCount: 2
Fore
SplineSet
0 0 m 1,0,-1
 0 1152 l 1,1,-1
 256 1152 l 1,2,-1
 256 512 l 1,3,-1
 384 512 l 1,4,-1
 384 640 l 1,5,-1
 512 640 l 1,6,-1
 512 896 l 1,7,-1
 768 896 l 1,8,-1
 768 640 l 1,9,-1
 640 640 l 1,10,-1
 640 512 l 1,11,-1
 512 512 l 1,12,-1
 512 384 l 1,13,-1
 640 384 l 1,14,-1
 640 256 l 1,15,-1
 768 256 l 1,16,-1
 768 0 l 1,17,-1
 512 0 l 1,18,-1
 512 256 l 1,19,-1
 384 256 l 1,20,-1
 384 384 l 1,21,-1
 256 384 l 1,22,-1
 256 0 l 1,23,-1
 0 0 l 1,0,-1
EndSplineSet
EndChar

StartChar: l
Encoding: 108 108 79
Width: 896
GlyphClass: 2
Flags: W
LayerCount: 2
Fore
SplineSet
0 0 m 1,0,-1
 0 128 l 1,1,-1
 256 128 l 1,2,-1
 256 1024 l 1,3,-1
 0 1024 l 1,4,-1
 0 1152 l 1,5,-1
 512 1152 l 1,6,-1
 512 128 l 1,7,-1
 768 128 l 1,8,-1
 768 0 l 1,9,-1
 0 0 l 1,0,-1
EndSplineSet
EndChar

StartChar: m
Encoding: 109 109 80
Width: 1024
GlyphClass: 2
Flags: W
LayerCount: 2
Fore
SplineSet
0 0 m 1,0,-1
 0 896 l 1,1,-1
 384 896 l 1,2,-1
 384 768 l 1,3,-1
 512 768 l 1,4,-1
 512 896 l 1,5,-1
 768 896 l 1,6,-1
 768 768 l 1,7,-1
 896 768 l 1,8,-1
 896 0 l 1,9,-1
 640 0 l 1,10,-1
 640 640 l 1,11,-1
 512 640 l 1,12,-1
 512 128 l 1,13,-1
 384 128 l 1,14,-1
 384 640 l 1,15,-1
 256 640 l 1,16,-1
 256 0 l 1,17,-1
 0 0 l 1,0,-1
EndSplineSet
EndChar

StartChar: n
Encoding: 110 110 81
Width: 896
GlyphClass: 2
Flags: W
LayerCount: 2
Fore
SplineSet
0 0 m 1,0,-1
 0 896 l 1,1,-1
 640 896 l 1,2,-1
 640 768 l 1,3,-1
 768 768 l 1,4,-1
 768 0 l 1,5,-1
 512 0 l 1,6,-1
 512 768 l 1,7,-1
 256 768 l 1,8,-1
 256 0 l 1,9,-1
 0 0 l 1,0,-1
EndSplineSet
EndChar

StartChar: o
Encoding: 111 111 82
Width: 896
GlyphClass: 2
Flags: W
LayerCount: 2
Fore
SplineSet
0 128 m 1,0,-1
 0 768 l 1,1,-1
 128 768 l 1,2,-1
 128 896 l 1,3,-1
 640 896 l 1,4,-1
 640 768 l 1,5,-1
 768 768 l 1,6,-1
 768 128 l 1,7,-1
 640 128 l 1,8,-1
 640 0 l 1,9,-1
 128 0 l 1,10,-1
 128 128 l 1,11,-1
 0 128 l 1,0,-1
256 128 m 1,12,-1
 512 128 l 1,13,-1
 512 768 l 1,14,-1
 256 768 l 1,15,-1
 256 128 l 1,12,-1
EndSplineSet
EndChar

StartChar: p
Encoding: 112 112 83
Width: 896
GlyphClass: 2
Flags: W
LayerCount: 2
Fore
SplineSet
0 -384 m 1,0,-1
 0 896 l 1,1,-1
 640 896 l 1,2,-1
 640 768 l 1,3,-1
 768 768 l 1,4,-1
 768 128 l 1,5,-1
 640 128 l 1,6,-1
 640 0 l 1,7,-1
 256 0 l 1,8,-1
 256 -384 l 1,9,-1
 0 -384 l 1,0,-1
256 128 m 1,10,-1
 512 128 l 1,11,-1
 512 768 l 1,12,-1
 256 768 l 1,13,-1
 256 128 l 1,10,-1
EndSplineSet
EndChar

StartChar: q
Encoding: 113 113 84
Width: 896
GlyphClass: 2
Flags: W
LayerCount: 2
Fore
SplineSet
0 128 m 1,0,-1
 0 768 l 1,1,-1
 128 768 l 1,2,-1
 128 896 l 1,3,-1
 768 896 l 1,4,-1
 768 -384 l 1,5,-1
 512 -384 l 1,6,-1
 512 0 l 1,7,-1
 128 0 l 1,8,-1
 128 128 l 1,9,-1
 0 128 l 1,0,-1
256 128 m 1,10,-1
 512 128 l 1,11,-1
 512 768 l 1,12,-1
 256 768 l 1,13,-1
 256 128 l 1,10,-1
EndSplineSet
EndChar

StartChar: r
Encoding: 114 114 85
Width: 896
GlyphClass: 2
Flags: W
LayerCount: 2
Fore
SplineSet
0 0 m 1,0,-1
 0 896 l 1,1,-1
 640 896 l 1,2,-1
 640 768 l 1,3,-1
 768 768 l 1,4,-1
 768 512 l 1,5,-1
 512 512 l 1,6,-1
 512 768 l 1,7,-1
 256 768 l 1,8,-1
 256 0 l 1,9,-1
 0 0 l 1,0,-1
EndSplineSet
EndChar

StartChar: s
Encoding: 115 115 86
Width: 896
GlyphClass: 2
Flags: W
LayerCount: 2
Fore
SplineSet
0 128 m 1,0,-1
 0 256 l 1,1,-1
 256 256 l 1,2,-1
 256 128 l 1,3,-1
 512 128 l 1,4,-1
 512 384 l 1,5,-1
 128 384 l 1,6,-1
 128 512 l 1,7,-1
 0 512 l 1,8,-1
 0 768 l 1,9,-1
 128 768 l 1,10,-1
 128 896 l 1,11,-1
 640 896 l 1,12,-1
 640 768 l 1,13,-1
 768 768 l 1,14,-1
 768 640 l 1,15,-1
 512 640 l 1,16,-1
 512 768 l 1,17,-1
 256 768 l 1,18,-1
 256 512 l 1,19,-1
 640 512 l 1,20,-1
 640 384 l 1,21,-1
 768 384 l 1,22,-1
 768 128 l 1,23,-1
 640 128 l 1,24,-1
 640 0 l 1,25,-1
 128 0 l 1,26,-1
 128 128 l 1,27,-1
 0 128 l 1,0,-1
EndSplineSet
EndChar

StartChar: t
Encoding: 116 116 87
Width: 896
GlyphClass: 2
Flags: W
LayerCount: 2
Fore
SplineSet
0 768 m 1,0,-1
 0 896 l 1,1,-1
 256 896 l 1,2,-1
 256 1152 l 1,3,-1
 512 1152 l 1,4,-1
 512 896 l 1,5,-1
 768 896 l 1,6,-1
 768 768 l 1,7,-1
 512 768 l 1,8,-1
 512 128 l 1,9,-1
 768 128 l 1,10,-1
 768 0 l 1,11,-1
 384 0 l 1,12,-1
 384 128 l 1,13,-1
 256 128 l 1,14,-1
 256 768 l 1,15,-1
 0 768 l 1,0,-1
EndSplineSet
EndChar

StartChar: u
Encoding: 117 117 88
Width: 896
GlyphClass: 2
Flags: W
LayerCount: 2
Fore
SplineSet
0 128 m 1,0,-1
 0 896 l 1,1,-1
 256 896 l 1,2,-1
 256 128 l 1,3,-1
 512 128 l 1,4,-1
 512 896 l 1,5,-1
 768 896 l 1,6,-1
 768 0 l 1,7,-1
 128 0 l 1,8,-1
 128 128 l 1,9,-1
 0 128 l 1,0,-1
EndSplineSet
EndChar

StartChar: v
Encoding: 118 118 89
Width: 896
GlyphClass: 2
Flags: W
LayerCount: 2
Fore
SplineSet
0 512 m 1,0,-1
 0 896 l 1,1,-1
 256 896 l 1,2,-1
 256 512 l 1,3,-1
 512 512 l 1,4,-1
 512 896 l 1,5,-1
 768 896 l 1,6,-1
 768 512 l 1,7,-1
 640 512 l 1,8,-1
 640 256 l 1,9,-1
 512 256 l 1,10,-1
 512 0 l 1,11,-1
 256 0 l 1,12,-1
 256 256 l 1,13,-1
 128 256 l 1,14,-1
 128 512 l 1,15,-1
 0 512 l 1,0,-1
EndSplineSet
EndChar

StartChar: w
Encoding: 119 119 90
Width: 1024
GlyphClass: 2
Flags: W
LayerCount: 2
Fore
SplineSet
0 256 m 1,0,-1
 0 896 l 1,1,-1
 256 896 l 1,2,-1
 256 256 l 1,3,-1
 384 256 l 1,4,-1
 384 0 l 1,5,-1
 128 0 l 1,6,-1
 128 256 l 1,7,-1
 0 256 l 1,0,-1
384 256 m 1,8,-1
 384 768 l 1,9,-1
 512 768 l 1,10,-1
 512 256 l 1,11,-1
 384 256 l 1,8,-1
512 0 m 1,12,-1
 512 256 l 1,13,-1
 640 256 l 1,14,-1
 640 896 l 1,15,-1
 896 896 l 1,16,-1
 896 256 l 1,17,-1
 768 256 l 1,18,-1
 768 0 l 1,19,-1
 512 0 l 1,12,-1
EndSplineSet
EndChar

StartChar: x
Encoding: 120 120 91
Width: 896
GlyphClass: 2
Flags: W
LayerCount: 2
Fore
SplineSet
0 0 m 1,0,-1
 0 256 l 1,1,-1
 128 256 l 1,2,-1
 128 384 l 1,3,-1
 256 384 l 1,4,-1
 256 512 l 1,5,-1
 128 512 l 1,6,-1
 128 640 l 1,7,-1
 0 640 l 1,8,-1
 0 896 l 1,9,-1
 256 896 l 1,10,-1
 256 640 l 1,11,-1
 512 640 l 1,12,-1
 512 896 l 1,13,-1
 768 896 l 1,14,-1
 768 640 l 1,15,-1
 640 640 l 1,16,-1
 640 512 l 1,17,-1
 512 512 l 1,18,-1
 512 384 l 1,19,-1
 640 384 l 1,20,-1
 640 256 l 1,21,-1
 768 256 l 1,22,-1
 768 0 l 1,23,-1
 512 0 l 1,24,-1
 512 256 l 1,25,-1
 256 256 l 1,26,-1
 256 0 l 1,27,-1
 0 0 l 1,0,-1
EndSplineSet
EndChar

StartChar: y
Encoding: 121 121 92
Width: 896
GlyphClass: 2
Flags: W
LayerCount: 2
Fore
SplineSet
0 128 m 1,0,-1
 0 896 l 1,1,-1
 256 896 l 1,2,-1
 256 128 l 1,3,-1
 512 128 l 1,4,-1
 512 896 l 1,5,-1
 768 896 l 1,6,-1
 768 -256 l 1,7,-1
 640 -256 l 1,8,-1
 640 -384 l 1,9,-1
 128 -384 l 1,10,-1
 128 -256 l 1,11,-1
 0 -256 l 1,12,-1
 0 -128 l 1,13,-1
 256 -128 l 1,14,-1
 256 -256 l 1,15,-1
 512 -256 l 1,16,-1
 512 0 l 1,17,-1
 128 0 l 1,18,-1
 128 128 l 1,19,-1
 0 128 l 1,0,-1
EndSplineSet
EndChar

StartChar: z
Encoding: 122 122 93
Width: 896
GlyphClass: 2
Flags: W
LayerCount: 2
Fore
SplineSet
0 0 m 1,0,-1
 0 256 l 1,1,-1
 128 256 l 1,2,-1
 128 384 l 1,3,-1
 256 384 l 1,4,-1
 256 512 l 1,5,-1
 384 512 l 1,6,-1
 384 640 l 1,7,-1
 512 640 l 1,8,-1
 512 768 l 1,9,-1
 0 768 l 1,10,-1
 0 896 l 1,11,-1
 768 896 l 1,12,-1
 768 640 l 1,13,-1
 640 640 l 1,14,-1
 640 512 l 1,15,-1
 512 512 l 1,16,-1
 512 384 l 1,17,-1
 384 384 l 1,18,-1
 384 256 l 1,19,-1
 256 256 l 1,20,-1
 256 128 l 1,21,-1
 768 128 l 1,22,-1
 768 0 l 1,23,-1
 0 0 l 1,0,-1
EndSplineSet
EndChar

StartChar: braceleft
Encoding: 123 123 94
Width: 768
GlyphClass: 2
Flags: W
LayerCount: 2
Fore
SplineSet
0 512 m 1,0,-1
 0 640 l 1,1,-1
 128 640 l 1,2,-1
 128 1024 l 1,3,-1
 256 1024 l 1,4,-1
 256 1152 l 1,5,-1
 640 1152 l 1,6,-1
 640 1024 l 1,7,-1
 384 1024 l 1,8,-1
 384 640 l 1,9,-1
 256 640 l 1,10,-1
 256 512 l 1,11,-1
 384 512 l 1,12,-1
 384 128 l 1,13,-1
 640 128 l 1,14,-1
 640 0 l 1,15,-1
 256 0 l 1,16,-1
 256 128 l 1,17,-1
 128 128 l 1,18,-1
 128 512 l 1,19,-1
 0 512 l 1,0,-1
EndSplineSet
EndChar

StartChar: bar
Encoding: 124 124 95
Width: 384
GlyphClass: 2
Flags: W
LayerCount: 2
Fore
SplineSet
0 0 m 1,0,-1
 0 1152 l 1,1,-1
 256 1152 l 1,2,-1
 256 0 l 1,3,-1
 0 0 l 1,0,-1
EndSplineSet
EndChar

StartChar: braceright
Encoding: 125 125 96
Width: 768
GlyphClass: 2
Flags: W
LayerCount: 2
Fore
SplineSet
0 0 m 1,0,-1
 0 128 l 1,1,-1
 256 128 l 1,2,-1
 256 512 l 1,3,-1
 384 512 l 1,4,-1
 384 640 l 1,5,-1
 256 640 l 1,6,-1
 256 1024 l 1,7,-1
 0 1024 l 1,8,-1
 0 1152 l 1,9,-1
 384 1152 l 1,10,-1
 384 1024 l 1,11,-1
 512 1024 l 1,12,-1
 512 640 l 1,13,-1
 640 640 l 1,14,-1
 640 512 l 1,15,-1
 512 512 l 1,16,-1
 512 128 l 1,17,-1
 384 128 l 1,18,-1
 384 0 l 1,19,-1
 0 0 l 1,0,-1
EndSplineSet
EndChar

StartChar: asciitilde
Encoding: 126 126 97
Width: 1024
GlyphClass: 2
Flags: W
LayerCount: 2
Fore
SplineSet
0 384 m 1,0,-1
 0 512 l 1,1,-1
 128 512 l 1,2,-1
 128 640 l 1,3,-1
 512 640 l 1,4,-1
 512 512 l 1,5,-1
 640 512 l 1,6,-1
 640 640 l 1,7,-1
 896 640 l 1,8,-1
 896 512 l 1,9,-1
 768 512 l 1,10,-1
 768 384 l 1,11,-1
 384 384 l 1,12,-1
 384 512 l 1,13,-1
 256 512 l 1,14,-1
 256 384 l 1,15,-1
 0 384 l 1,0,-1
EndSplineSet
EndChar

StartChar: exclamdown
Encoding: 161 161 99
Width: 640
GlyphClass: 2
Flags: W
LayerCount: 2
Fore
SplineSet
0 128 m 1,0,-1
 128 128 l 1,1,-1
 128 512 l 1,2,-1
 384 512 l 1,3,-1
 384 128 l 1,4,-1
 512 128 l 1,5,-1
 512 -256 l 1,6,-1
 384 -256 l 1,7,-1
 384 -384 l 1,8,-1
 128 -384 l 1,9,-1
 128 -256 l 1,10,-1
 0 -256 l 1,11,-1
 0 128 l 1,0,-1
128 640 m 1,12,-1
 128 896 l 1,13,-1
 384 896 l 1,14,-1
 384 640 l 1,15,-1
 128 640 l 1,12,-1
EndSplineSet
EndChar

StartChar: cent
Encoding: 162 162 100
Width: 896
GlyphClass: 2
Flags: W
LayerCount: 2
Fore
SplineSet
0 384 m 1,0,-1
 0 768 l 1,1,-1
 128 768 l 1,2,-1
 128 896 l 1,3,-1
 256 896 l 1,4,-1
 256 1152 l 1,5,-1
 512 1152 l 1,6,-1
 512 896 l 1,7,-1
 640 896 l 1,8,-1
 640 768 l 1,9,-1
 768 768 l 1,10,-1
 768 640 l 1,11,-1
 512 640 l 1,12,-1
 512 768 l 1,13,-1
 256 768 l 1,14,-1
 256 384 l 1,15,-1
 512 384 l 1,16,-1
 512 512 l 1,17,-1
 768 512 l 1,18,-1
 768 384 l 1,19,-1
 640 384 l 1,20,-1
 640 256 l 1,21,-1
 512 256 l 1,22,-1
 512 0 l 1,23,-1
 256 0 l 1,24,-1
 256 256 l 1,25,-1
 128 256 l 1,26,-1
 128 384 l 1,27,-1
 0 384 l 1,0,-1
EndSplineSet
EndChar

StartChar: sterling
Encoding: 163 163 101
Width: 1024
GlyphClass: 2
Flags: W
LayerCount: 2
Fore
SplineSet
0 0 m 1,0,-1
 0 128 l 1,1,-1
 128 128 l 1,2,-1
 128 512 l 1,3,-1
 0 512 l 1,4,-1
 0 640 l 1,5,-1
 128 640 l 1,6,-1
 128 1024 l 1,7,-1
 256 1024 l 1,8,-1
 256 1152 l 1,9,-1
 768 1152 l 1,10,-1
 768 1024 l 1,11,-1
 896 1024 l 1,12,-1
 896 768 l 1,13,-1
 640 768 l 1,14,-1
 640 1024 l 1,15,-1
 384 1024 l 1,16,-1
 384 640 l 1,17,-1
 640 640 l 1,18,-1
 640 512 l 1,19,-1
 384 512 l 1,20,-1
 384 128 l 1,21,-1
 640 128 l 1,22,-1
 640 384 l 1,23,-1
 896 384 l 1,24,-1
 896 128 l 1,25,-1
 768 128 l 1,26,-1
 768 0 l 1,27,-1
 0 0 l 1,0,-1
EndSplineSet
EndChar

StartChar: yen
Encoding: 165 165 102
Width: 896
GlyphClass: 2
Flags: W
LayerCount: 2
Fore
SplineSet
0 128 m 1,0,-1
 0 256 l 1,1,-1
 256 256 l 1,2,-1
 256 384 l 1,3,-1
 0 384 l 1,4,-1
 0 512 l 1,5,-1
 128 512 l 1,6,-1
 128 640 l 1,7,-1
 0 640 l 1,8,-1
 0 1152 l 1,9,-1
 256 1152 l 1,10,-1
 256 640 l 1,11,-1
 512 640 l 1,12,-1
 512 1152 l 1,13,-1
 768 1152 l 1,14,-1
 768 640 l 1,15,-1
 640 640 l 1,16,-1
 640 512 l 1,17,-1
 768 512 l 1,18,-1
 768 384 l 1,19,-1
 512 384 l 1,20,-1
 512 256 l 1,21,-1
 768 256 l 1,22,-1
 768 128 l 1,23,-1
 512 128 l 1,24,-1
 512 0 l 1,25,-1
 256 0 l 1,26,-1
 256 128 l 1,27,-1
 0 128 l 1,0,-1
EndSplineSet
EndChar

StartChar: brokenbar
Encoding: 166 166 103
Width: 384
GlyphClass: 2
Flags: W
LayerCount: 2
Fore
SplineSet
0 0 m 1,0,-1
 0 512 l 1,1,-1
 256 512 l 1,2,-1
 256 0 l 1,3,-1
 0 0 l 1,0,-1
0 640 m 1,4,-1
 0 1152 l 1,5,-1
 256 1152 l 1,6,-1
 256 640 l 1,7,-1
 0 640 l 1,4,-1
EndSplineSet
EndChar

StartChar: section
Encoding: 167 167 104
Width: 896
GlyphClass: 2
Flags: W
LayerCount: 2
Fore
SplineSet
0 -128 m 1,0,-1
 256 -128 l 1,1,-1
 256 -256 l 1,2,-1
 512 -256 l 1,3,-1
 512 0 l 1,4,-1
 128 0 l 1,5,-1
 128 128 l 1,6,-1
 0 128 l 1,7,-1
 0 640 l 1,8,-1
 128 640 l 1,9,-1
 128 768 l 1,10,-1
 0 768 l 1,11,-1
 0 1024 l 1,12,-1
 128 1024 l 1,13,-1
 128 1152 l 1,14,-1
 640 1152 l 1,15,-1
 640 1024 l 1,16,-1
 768 1024 l 1,17,-1
 768 896 l 1,18,-1
 512 896 l 1,19,-1
 512 1024 l 1,20,-1
 256 1024 l 1,21,-1
 256 768 l 1,22,-1
 640 768 l 1,23,-1
 640 640 l 1,24,-1
 768 640 l 1,25,-1
 768 128 l 1,26,-1
 640 128 l 1,27,-1
 640 0 l 1,28,-1
 768 0 l 1,29,-1
 768 -256 l 1,30,-1
 640 -256 l 1,31,-1
 640 -384 l 1,32,-1
 128 -384 l 1,33,-1
 128 -256 l 1,34,-1
 0 -256 l 1,35,-1
 0 -128 l 1,0,-1
256 128 m 1,36,-1
 512 128 l 1,37,-1
 512 640 l 1,38,-1
 256 640 l 1,39,-1
 256 128 l 1,36,-1
EndSplineSet
EndChar

StartChar: dieresis
Encoding: 168 168 105
Width: 896
GlyphClass: 2
Flags: W
LayerCount: 2
Fore
SplineSet
0 896 m 1,0,-1
 0 1152 l 1,1,-1
 256 1152 l 1,2,-1
 256 896 l 1,3,-1
 0 896 l 1,0,-1
512 896 m 1,4,-1
 512 1152 l 1,5,-1
 768 1152 l 1,6,-1
 768 896 l 1,7,-1
 512 896 l 1,4,-1
EndSplineSet
EndChar

StartChar: copyright
Encoding: 169 169 106
Width: 1152
GlyphClass: 2
Flags: W
LayerCount: 2
Fore
SplineSet
0 256 m 1,0,-1
 0 896 l 1,1,-1
 128 896 l 1,2,-1
 128 256 l 1,3,-1
 0 256 l 1,0,-1
128 128 m 1,4,-1
 128 256 l 1,5,-1
 256 256 l 1,6,-1
 256 128 l 1,7,-1
 128 128 l 1,4,-1
128 896 m 1,8,-1
 128 1024 l 1,9,-1
 256 1024 l 1,10,-1
 256 896 l 1,11,-1
 128 896 l 1,8,-1
256 0 m 1,12,-1
 256 128 l 1,13,-1
 768 128 l 1,14,-1
 768 0 l 1,15,-1
 256 0 l 1,12,-1
256 384 m 1,16,-1
 256 768 l 1,17,-1
 384 768 l 1,18,-1
 384 384 l 1,19,-1
 256 384 l 1,16,-1
256 1024 m 1,20,-1
 256 1152 l 1,21,-1
 768 1152 l 1,22,-1
 768 1024 l 1,23,-1
 256 1024 l 1,20,-1
384 256 m 1,24,-1
 384 384 l 1,25,-1
 640 384 l 1,26,-1
 640 256 l 1,27,-1
 384 256 l 1,24,-1
384 768 m 1,28,-1
 384 896 l 1,29,-1
 640 896 l 1,30,-1
 640 768 l 1,31,-1
 384 768 l 1,28,-1
640 384 m 1,32,-1
 640 512 l 1,33,-1
 768 512 l 1,34,-1
 768 384 l 1,35,-1
 640 384 l 1,32,-1
640 640 m 1,36,-1
 640 768 l 1,37,-1
 768 768 l 1,38,-1
 768 640 l 1,39,-1
 640 640 l 1,36,-1
768 128 m 1,40,-1
 768 256 l 1,41,-1
 896 256 l 1,42,-1
 896 128 l 1,43,-1
 768 128 l 1,40,-1
768 896 m 1,44,-1
 768 1024 l 1,45,-1
 896 1024 l 1,46,-1
 896 896 l 1,47,-1
 768 896 l 1,44,-1
896 256 m 1,48,-1
 896 896 l 1,49,-1
 1024 896 l 1,50,-1
 1024 256 l 1,51,-1
 896 256 l 1,48,-1
EndSplineSet
EndChar

StartChar: ordfeminine
Encoding: 170 170 107
Width: 896
GlyphClass: 2
Flags: W
LayerCount: 2
Fore
SplineSet
0 384 m 1,0,-1
 0 640 l 1,1,-1
 128 640 l 1,2,-1
 128 768 l 1,3,-1
 512 768 l 1,4,-1
 512 1024 l 1,5,-1
 256 1024 l 1,6,-1
 256 896 l 1,7,-1
 0 896 l 1,8,-1
 0 1024 l 1,9,-1
 128 1024 l 1,10,-1
 128 1152 l 1,11,-1
 640 1152 l 1,12,-1
 640 1024 l 1,13,-1
 768 1024 l 1,14,-1
 768 256 l 1,15,-1
 128 256 l 1,16,-1
 128 384 l 1,17,-1
 0 384 l 1,0,-1
256 384 m 1,18,-1
 512 384 l 1,19,-1
 512 640 l 1,20,-1
 256 640 l 1,21,-1
 256 384 l 1,18,-1
EndSplineSet
EndChar

StartChar: guillemotleft
Encoding: 171 171 108
Width: 1152
GlyphClass: 2
Flags: W
LayerCount: 2
Fore
SplineSet
0 512 m 1,0,-1
 0 640 l 1,1,-1
 128 640 l 1,2,-1
 128 768 l 1,3,-1
 256 768 l 1,4,-1
 256 896 l 1,5,-1
 512 896 l 1,6,-1
 512 768 l 1,7,-1
 384 768 l 1,8,-1
 384 640 l 1,9,-1
 256 640 l 1,10,-1
 256 512 l 1,11,-1
 384 512 l 1,12,-1
 384 384 l 1,13,-1
 512 384 l 1,14,-1
 512 256 l 1,15,-1
 256 256 l 1,16,-1
 256 384 l 1,17,-1
 128 384 l 1,18,-1
 128 512 l 1,19,-1
 0 512 l 1,0,-1
512 512 m 1,20,-1
 512 640 l 1,21,-1
 640 640 l 1,22,-1
 640 768 l 1,23,-1
 768 768 l 1,24,-1
 768 896 l 1,25,-1
 1024 896 l 1,26,-1
 1024 768 l 1,27,-1
 896 768 l 1,28,-1
 896 640 l 1,29,-1
 768 640 l 1,30,-1
 768 512 l 1,31,-1
 896 512 l 1,32,-1
 896 384 l 1,33,-1
 1024 384 l 1,34,-1
 1024 256 l 1,35,-1
 768 256 l 1,36,-1
 768 384 l 1,37,-1
 640 384 l 1,38,-1
 640 512 l 1,39,-1
 512 512 l 1,20,-1
EndSplineSet
EndChar

StartChar: logicalnot
Encoding: 172 172 109
Width: 896
GlyphClass: 2
Flags: W
LayerCount: 2
Fore
SplineSet
0 512 m 1,0,-1
 0 640 l 1,1,-1
 768 640 l 1,2,-1
 768 256 l 1,3,-1
 512 256 l 1,4,-1
 512 512 l 1,5,-1
 0 512 l 1,0,-1
EndSplineSet
EndChar

StartChar: uni00AD
Encoding: 173 173 110
Width: 640
GlyphClass: 2
Flags: W
LayerCount: 2
Fore
SplineSet
0 512 m 1,0,-1
 0 640 l 1,1,-1
 512 640 l 1,2,-1
 512 512 l 1,3,-1
 0 512 l 1,0,-1
EndSplineSet
EndChar

StartChar: registered
Encoding: 174 174 111
Width: 1152
GlyphClass: 2
Flags: W
LayerCount: 2
Fore
SplineSet
0 256 m 1,0,-1
 0 896 l 1,1,-1
 128 896 l 1,2,-1
 128 256 l 1,3,-1
 0 256 l 1,0,-1
128 128 m 1,4,-1
 128 256 l 1,5,-1
 256 256 l 1,6,-1
 256 128 l 1,7,-1
 128 128 l 1,4,-1
128 896 m 1,8,-1
 128 1024 l 1,9,-1
 256 1024 l 1,10,-1
 256 896 l 1,11,-1
 128 896 l 1,8,-1
256 0 m 1,12,-1
 256 128 l 1,13,-1
 768 128 l 1,14,-1
 768 0 l 1,15,-1
 256 0 l 1,12,-1
256 256 m 1,16,-1
 256 896 l 1,17,-1
 640 896 l 1,18,-1
 640 768 l 1,19,-1
 384 768 l 1,20,-1
 384 640 l 1,21,-1
 640 640 l 1,22,-1
 640 512 l 1,23,-1
 384 512 l 1,24,-1
 384 256 l 1,25,-1
 256 256 l 1,16,-1
256 1024 m 1,26,-1
 256 1152 l 1,27,-1
 768 1152 l 1,28,-1
 768 1024 l 1,29,-1
 256 1024 l 1,26,-1
640 256 m 1,30,-1
 640 512 l 1,31,-1
 768 512 l 1,32,-1
 768 256 l 1,33,-1
 640 256 l 1,30,-1
640 640 m 1,34,-1
 640 768 l 1,35,-1
 768 768 l 1,36,-1
 768 640 l 1,37,-1
 640 640 l 1,34,-1
768 128 m 1,38,-1
 768 256 l 1,39,-1
 896 256 l 1,40,-1
 896 128 l 1,41,-1
 768 128 l 1,38,-1
768 896 m 1,42,-1
 768 1024 l 1,43,-1
 896 1024 l 1,44,-1
 896 896 l 1,45,-1
 768 896 l 1,42,-1
896 256 m 1,46,-1
 896 896 l 1,47,-1
 1024 896 l 1,48,-1
 1024 256 l 1,49,-1
 896 256 l 1,46,-1
EndSplineSet
EndChar

StartChar: degree
Encoding: 176 176 112
Width: 640
GlyphClass: 2
Flags: W
LayerCount: 2
Fore
SplineSet
0 768 m 1,0,-1
 0 1024 l 1,1,-1
 128 1024 l 1,2,-1
 128 768 l 1,3,-1
 0 768 l 1,0,-1
128 640 m 1,4,-1
 128 768 l 1,5,-1
 384 768 l 1,6,-1
 384 640 l 1,7,-1
 128 640 l 1,4,-1
128 1024 m 1,8,-1
 128 1152 l 1,9,-1
 384 1152 l 1,10,-1
 384 1024 l 1,11,-1
 128 1024 l 1,8,-1
384 768 m 1,12,-1
 384 1024 l 1,13,-1
 512 1024 l 1,14,-1
 512 768 l 1,15,-1
 384 768 l 1,12,-1
EndSplineSet
EndChar

StartChar: plusminus
Encoding: 177 177 113
Width: 896
GlyphClass: 2
Flags: W
LayerCount: 2
Fore
SplineSet
0 0 m 1,0,-1
 0 128 l 1,1,-1
 768 128 l 1,2,-1
 768 0 l 1,3,-1
 0 0 l 1,0,-1
0 512 m 1,4,-1
 0 640 l 1,5,-1
 256 640 l 1,6,-1
 256 896 l 1,7,-1
 512 896 l 1,8,-1
 512 640 l 1,9,-1
 768 640 l 1,10,-1
 768 512 l 1,11,-1
 512 512 l 1,12,-1
 512 256 l 1,13,-1
 256 256 l 1,14,-1
 256 512 l 1,15,-1
 0 512 l 1,4,-1
EndSplineSet
EndChar

StartChar: acute
Encoding: 180 180 114
Width: 512
GlyphClass: 2
Flags: W
LayerCount: 2
Fore
SplineSet
0 896 m 1,0,-1
 0 1024 l 1,1,-1
 128 1024 l 1,2,-1
 128 1152 l 1,3,-1
 384 1152 l 1,4,-1
 384 1024 l 1,5,-1
 256 1024 l 1,6,-1
 256 896 l 1,7,-1
 0 896 l 1,0,-1
EndSplineSet
EndChar

StartChar: uni00B5
Encoding: 181 181 115
Width: 896
GlyphClass: 2
Flags: W
LayerCount: 2
Fore
SplineSet
0 -384 m 1,0,-1
 0 896 l 1,1,-1
 256 896 l 1,2,-1
 256 128 l 1,3,-1
 512 128 l 1,4,-1
 512 896 l 1,5,-1
 768 896 l 1,6,-1
 768 128 l 1,7,-1
 640 128 l 1,8,-1
 640 0 l 1,9,-1
 256 0 l 1,10,-1
 256 -384 l 1,11,-1
 0 -384 l 1,0,-1
EndSplineSet
EndChar

StartChar: paragraph
Encoding: 182 182 116
Width: 1024
GlyphClass: 2
Flags: W
LayerCount: 2
Fore
SplineSet
0 640 m 1,0,-1
 0 1024 l 1,1,-1
 128 1024 l 1,2,-1
 128 1152 l 1,3,-1
 896 1152 l 1,4,-1
 896 0 l 1,5,-1
 640 0 l 1,6,-1
 640 1024 l 1,7,-1
 512 1024 l 1,8,-1
 512 0 l 1,9,-1
 256 0 l 1,10,-1
 256 512 l 1,11,-1
 128 512 l 1,12,-1
 128 640 l 1,13,-1
 0 640 l 1,0,-1
EndSplineSet
EndChar

StartChar: periodcentered
Encoding: 183 183 117
Width: 384
GlyphClass: 2
Flags: W
LayerCount: 2
Fore
SplineSet
0 384 m 1,0,-1
 0 640 l 1,1,-1
 256 640 l 1,2,-1
 256 384 l 1,3,-1
 0 384 l 1,0,-1
EndSplineSet
EndChar

StartChar: cedilla
Encoding: 184 184 118
Width: 768
GlyphClass: 2
Flags: W
LayerCount: 2
Fore
SplineSet
0 -256 m 1,0,-1
 384 -256 l 1,1,-1
 384 -128 l 1,2,-1
 256 -128 l 1,3,-1
 256 0 l 1,4,-1
 512 0 l 1,5,-1
 512 -128 l 1,6,-1
 640 -128 l 1,7,-1
 640 -256 l 1,8,-1
 512 -256 l 1,9,-1
 512 -384 l 1,10,-1
 0 -384 l 1,11,-1
 0 -256 l 1,0,-1
EndSplineSet
EndChar

StartChar: ordmasculine
Encoding: 186 186 119
Width: 896
GlyphClass: 2
Flags: W
LayerCount: 2
Fore
SplineSet
0 384 m 1,0,-1
 0 1024 l 1,1,-1
 128 1024 l 1,2,-1
 128 1152 l 1,3,-1
 640 1152 l 1,4,-1
 640 1024 l 1,5,-1
 768 1024 l 1,6,-1
 768 384 l 1,7,-1
 640 384 l 1,8,-1
 640 256 l 1,9,-1
 128 256 l 1,10,-1
 128 384 l 1,11,-1
 0 384 l 1,0,-1
256 384 m 1,12,-1
 512 384 l 1,13,-1
 512 1024 l 1,14,-1
 256 1024 l 1,15,-1
 256 384 l 1,12,-1
EndSplineSet
EndChar

StartChar: guillemotright
Encoding: 187 187 120
Width: 1152
GlyphClass: 2
Flags: W
LayerCount: 2
Fore
SplineSet
0 256 m 1,0,-1
 0 384 l 1,1,-1
 128 384 l 1,2,-1
 128 512 l 1,3,-1
 256 512 l 1,4,-1
 256 640 l 1,5,-1
 128 640 l 1,6,-1
 128 768 l 1,7,-1
 0 768 l 1,8,-1
 0 896 l 1,9,-1
 256 896 l 1,10,-1
 256 768 l 1,11,-1
 384 768 l 1,12,-1
 384 640 l 1,13,-1
 512 640 l 1,14,-1
 512 512 l 1,15,-1
 384 512 l 1,16,-1
 384 384 l 1,17,-1
 256 384 l 1,18,-1
 256 256 l 1,19,-1
 0 256 l 1,0,-1
512 256 m 1,20,-1
 512 384 l 1,21,-1
 640 384 l 1,22,-1
 640 512 l 1,23,-1
 768 512 l 1,24,-1
 768 640 l 1,25,-1
 640 640 l 1,26,-1
 640 768 l 1,27,-1
 512 768 l 1,28,-1
 512 896 l 1,29,-1
 768 896 l 1,30,-1
 768 768 l 1,31,-1
 896 768 l 1,32,-1
 896 640 l 1,33,-1
 1024 640 l 1,34,-1
 1024 512 l 1,35,-1
 896 512 l 1,36,-1
 896 384 l 1,37,-1
 768 384 l 1,38,-1
 768 256 l 1,39,-1
 512 256 l 1,20,-1
EndSplineSet
EndChar

StartChar: questiondown
Encoding: 191 191 121
Width: 896
GlyphClass: 2
Flags: W
LayerCount: 2
Fore
SplineSet
0 128 m 1,0,-1
 128 128 l 1,1,-1
 128 256 l 1,2,-1
 256 256 l 1,3,-1
 256 384 l 1,4,-1
 512 384 l 1,5,-1
 512 256 l 1,6,-1
 384 256 l 1,7,-1
 384 128 l 1,8,-1
 256 128 l 1,9,-1
 256 -256 l 1,10,-1
 512 -256 l 1,11,-1
 512 0 l 1,12,-1
 768 0 l 1,13,-1
 768 -256 l 1,14,-1
 640 -256 l 1,15,-1
 640 -384 l 1,16,-1
 128 -384 l 1,17,-1
 128 -256 l 1,18,-1
 0 -256 l 1,19,-1
 0 128 l 1,0,-1
256 512 m 1,20,-1
 256 768 l 1,21,-1
 512 768 l 1,22,-1
 512 512 l 1,23,-1
 256 512 l 1,20,-1
EndSplineSet
EndChar

StartChar: Agrave
Encoding: 192 192 122
Width: 896
GlyphClass: 2
Flags: W
LayerCount: 2
Fore
SplineSet
0 0 m 1,0,-1
 0 1024 l 1,1,-1
 128 1024 l 1,2,-1
 128 1152 l 1,3,-1
 640 1152 l 1,4,-1
 640 1024 l 1,5,-1
 768 1024 l 1,6,-1
 768 0 l 1,7,-1
 512 0 l 1,8,-1
 512 384 l 1,9,-1
 256 384 l 1,10,-1
 256 0 l 1,11,-1
 0 0 l 1,0,-1
128 1408 m 1,12,-1
 128 1536 l 1,13,-1
 384 1536 l 1,14,-1
 384 1408 l 1,15,-1
 512 1408 l 1,16,-1
 512 1280 l 1,17,-1
 256 1280 l 1,18,-1
 256 1408 l 1,19,-1
 128 1408 l 1,12,-1
256 512 m 1,20,-1
 512 512 l 1,21,-1
 512 1024 l 1,22,-1
 256 1024 l 1,23,-1
 256 512 l 1,20,-1
EndSplineSet
EndChar

StartChar: Aacute
Encoding: 193 193 123
Width: 896
GlyphClass: 2
Flags: W
LayerCount: 2
Fore
SplineSet
0 0 m 1,0,-1
 0 1024 l 1,1,-1
 128 1024 l 1,2,-1
 128 1152 l 1,3,-1
 640 1152 l 1,4,-1
 640 1024 l 1,5,-1
 768 1024 l 1,6,-1
 768 0 l 1,7,-1
 512 0 l 1,8,-1
 512 384 l 1,9,-1
 256 384 l 1,10,-1
 256 0 l 1,11,-1
 0 0 l 1,0,-1
256 512 m 1,12,-1
 512 512 l 1,13,-1
 512 1024 l 1,14,-1
 256 1024 l 1,15,-1
 256 512 l 1,12,-1
256 1280 m 1,16,-1
 256 1408 l 1,17,-1
 384 1408 l 1,18,-1
 384 1536 l 1,19,-1
 640 1536 l 1,20,-1
 640 1408 l 1,21,-1
 512 1408 l 1,22,-1
 512 1280 l 1,23,-1
 256 1280 l 1,16,-1
EndSplineSet
EndChar

StartChar: Acircumflex
Encoding: 194 194 124
Width: 896
GlyphClass: 2
Flags: W
LayerCount: 2
Fore
SplineSet
0 0 m 1,0,-1
 0 1024 l 1,1,-1
 128 1024 l 1,2,-1
 128 1152 l 1,3,-1
 640 1152 l 1,4,-1
 640 1024 l 1,5,-1
 768 1024 l 1,6,-1
 768 0 l 1,7,-1
 512 0 l 1,8,-1
 512 384 l 1,9,-1
 256 384 l 1,10,-1
 256 0 l 1,11,-1
 0 0 l 1,0,-1
0 1280 m 1,12,-1
 0 1408 l 1,13,-1
 128 1408 l 1,14,-1
 128 1536 l 1,15,-1
 256 1536 l 1,16,-1
 256 1664 l 1,17,-1
 512 1664 l 1,18,-1
 512 1536 l 1,19,-1
 640 1536 l 1,20,-1
 640 1408 l 1,21,-1
 768 1408 l 1,22,-1
 768 1280 l 1,23,-1
 512 1280 l 1,24,-1
 512 1408 l 1,25,-1
 256 1408 l 1,26,-1
 256 1280 l 1,27,-1
 0 1280 l 1,12,-1
256 512 m 1,28,-1
 512 512 l 1,29,-1
 512 1024 l 1,30,-1
 256 1024 l 1,31,-1
 256 512 l 1,28,-1
EndSplineSet
EndChar

StartChar: Atilde
Encoding: 195 195 125
Width: 896
GlyphClass: 2
Flags: W
LayerCount: 2
Fore
SplineSet
0 0 m 1,0,-1
 0 1024 l 1,1,-1
 128 1024 l 1,2,-1
 128 1152 l 1,3,-1
 640 1152 l 1,4,-1
 640 1024 l 1,5,-1
 768 1024 l 1,6,-1
 768 0 l 1,7,-1
 512 0 l 1,8,-1
 512 384 l 1,9,-1
 256 384 l 1,10,-1
 256 0 l 1,11,-1
 0 0 l 1,0,-1
0 1280 m 1,12,-1
 0 1408 l 1,13,-1
 128 1408 l 1,14,-1
 128 1536 l 1,15,-1
 512 1536 l 1,16,-1
 512 1408 l 1,17,-1
 640 1408 l 1,18,-1
 640 1536 l 1,19,-1
 896 1536 l 1,20,-1
 896 1408 l 1,21,-1
 768 1408 l 1,22,-1
 768 1280 l 1,23,-1
 384 1280 l 1,24,-1
 384 1408 l 1,25,-1
 256 1408 l 1,26,-1
 256 1280 l 1,27,-1
 0 1280 l 1,12,-1
256 512 m 1,28,-1
 512 512 l 1,29,-1
 512 1024 l 1,30,-1
 256 1024 l 1,31,-1
 256 512 l 1,28,-1
EndSplineSet
EndChar

StartChar: Adieresis
Encoding: 196 196 126
Width: 896
GlyphClass: 2
Flags: W
LayerCount: 2
Fore
SplineSet
0 0 m 1,0,-1
 0 1024 l 1,1,-1
 128 1024 l 1,2,-1
 128 1152 l 1,3,-1
 640 1152 l 1,4,-1
 640 1024 l 1,5,-1
 768 1024 l 1,6,-1
 768 0 l 1,7,-1
 512 0 l 1,8,-1
 512 384 l 1,9,-1
 256 384 l 1,10,-1
 256 0 l 1,11,-1
 0 0 l 1,0,-1
0 1280 m 1,12,-1
 0 1536 l 1,13,-1
 256 1536 l 1,14,-1
 256 1280 l 1,15,-1
 0 1280 l 1,12,-1
256 512 m 1,16,-1
 512 512 l 1,17,-1
 512 1024 l 1,18,-1
 256 1024 l 1,19,-1
 256 512 l 1,16,-1
512 1280 m 1,20,-1
 512 1536 l 1,21,-1
 768 1536 l 1,22,-1
 768 1280 l 1,23,-1
 512 1280 l 1,20,-1
EndSplineSet
EndChar

StartChar: Aring
Encoding: 197 197 127
Width: 896
GlyphClass: 2
Flags: W
LayerCount: 2
Fore
SplineSet
0 0 m 1,0,-1
 0 1024 l 1,1,-1
 128 1024 l 1,2,-1
 128 1152 l 1,3,-1
 640 1152 l 1,4,-1
 640 1024 l 1,5,-1
 768 1024 l 1,6,-1
 768 0 l 1,7,-1
 512 0 l 1,8,-1
 512 384 l 1,9,-1
 256 384 l 1,10,-1
 256 0 l 1,11,-1
 0 0 l 1,0,-1
0 1408 m 1,12,-1
 0 1536 l 1,13,-1
 128 1536 l 1,14,-1
 128 1664 l 1,15,-1
 640 1664 l 1,16,-1
 640 1536 l 1,17,-1
 768 1536 l 1,18,-1
 768 1408 l 1,19,-1
 640 1408 l 1,20,-1
 640 1280 l 1,21,-1
 128 1280 l 1,22,-1
 128 1408 l 1,23,-1
 0 1408 l 1,12,-1
256 512 m 1,24,-1
 512 512 l 1,25,-1
 512 1024 l 1,26,-1
 256 1024 l 1,27,-1
 256 512 l 1,24,-1
256 1408 m 1,28,-1
 512 1408 l 1,29,-1
 512 1536 l 1,30,-1
 256 1536 l 1,31,-1
 256 1408 l 1,28,-1
EndSplineSet
EndChar

StartChar: AE
Encoding: 198 198 128
Width: 1024
GlyphClass: 2
Flags: W
LayerCount: 2
Fore
SplineSet
0 0 m 1,0,-1
 0 1024 l 1,1,-1
 128 1024 l 1,2,-1
 128 1152 l 1,3,-1
 896 1152 l 1,4,-1
 896 1024 l 1,5,-1
 640 1024 l 1,6,-1
 640 640 l 1,7,-1
 896 640 l 1,8,-1
 896 512 l 1,9,-1
 640 512 l 1,10,-1
 640 128 l 1,11,-1
 896 128 l 1,12,-1
 896 0 l 1,13,-1
 384 0 l 1,14,-1
 384 384 l 1,15,-1
 256 384 l 1,16,-1
 256 0 l 1,17,-1
 0 0 l 1,0,-1
256 512 m 1,18,-1
 384 512 l 1,19,-1
 384 1024 l 1,20,-1
 256 1024 l 1,21,-1
 256 512 l 1,18,-1
EndSplineSet
EndChar

StartChar: Ccedilla
Encoding: 199 199 129
Width: 896
GlyphClass: 2
Flags: W
LayerCount: 2
Fore
SplineSet
0 128 m 1,0,-1
 0 1024 l 1,1,-1
 128 1024 l 1,2,-1
 128 1152 l 1,3,-1
 640 1152 l 1,4,-1
 640 1024 l 1,5,-1
 768 1024 l 1,6,-1
 768 768 l 1,7,-1
 512 768 l 1,8,-1
 512 1024 l 1,9,-1
 256 1024 l 1,10,-1
 256 128 l 1,11,-1
 512 128 l 1,12,-1
 512 384 l 1,13,-1
 768 384 l 1,14,-1
 768 128 l 1,15,-1
 640 128 l 1,16,-1
 640 0 l 1,17,-1
 512 0 l 1,18,-1
 512 -128 l 1,19,-1
 640 -128 l 1,20,-1
 640 -256 l 1,21,-1
 512 -256 l 1,22,-1
 512 -384 l 1,23,-1
 0 -384 l 1,24,-1
 0 -256 l 1,25,-1
 384 -256 l 1,26,-1
 384 -128 l 1,27,-1
 256 -128 l 1,28,-1
 256 0 l 1,29,-1
 128 0 l 1,30,-1
 128 128 l 1,31,-1
 0 128 l 1,0,-1
EndSplineSet
EndChar

StartChar: Egrave
Encoding: 200 200 130
Width: 896
GlyphClass: 2
Flags: W
LayerCount: 2
Fore
SplineSet
0 0 m 1,0,-1
 0 1152 l 1,1,-1
 768 1152 l 1,2,-1
 768 1024 l 1,3,-1
 256 1024 l 1,4,-1
 256 640 l 1,5,-1
 640 640 l 1,6,-1
 640 512 l 1,7,-1
 256 512 l 1,8,-1
 256 128 l 1,9,-1
 768 128 l 1,10,-1
 768 0 l 1,11,-1
 0 0 l 1,0,-1
128 1408 m 1,12,-1
 128 1536 l 1,13,-1
 384 1536 l 1,14,-1
 384 1408 l 1,15,-1
 512 1408 l 1,16,-1
 512 1280 l 1,17,-1
 256 1280 l 1,18,-1
 256 1408 l 1,19,-1
 128 1408 l 1,12,-1
EndSplineSet
EndChar

StartChar: Eacute
Encoding: 201 201 131
Width: 896
GlyphClass: 2
Flags: W
LayerCount: 2
Fore
SplineSet
0 0 m 1,0,-1
 0 1152 l 1,1,-1
 768 1152 l 1,2,-1
 768 1024 l 1,3,-1
 256 1024 l 1,4,-1
 256 640 l 1,5,-1
 640 640 l 1,6,-1
 640 512 l 1,7,-1
 256 512 l 1,8,-1
 256 128 l 1,9,-1
 768 128 l 1,10,-1
 768 0 l 1,11,-1
 0 0 l 1,0,-1
256 1280 m 1,12,-1
 256 1408 l 1,13,-1
 384 1408 l 1,14,-1
 384 1536 l 1,15,-1
 640 1536 l 1,16,-1
 640 1408 l 1,17,-1
 512 1408 l 1,18,-1
 512 1280 l 1,19,-1
 256 1280 l 1,12,-1
EndSplineSet
EndChar

StartChar: Ecircumflex
Encoding: 202 202 132
Width: 896
GlyphClass: 2
Flags: W
LayerCount: 2
Fore
SplineSet
0 0 m 1,0,-1
 0 1152 l 1,1,-1
 768 1152 l 1,2,-1
 768 1024 l 1,3,-1
 256 1024 l 1,4,-1
 256 640 l 1,5,-1
 640 640 l 1,6,-1
 640 512 l 1,7,-1
 256 512 l 1,8,-1
 256 128 l 1,9,-1
 768 128 l 1,10,-1
 768 0 l 1,11,-1
 0 0 l 1,0,-1
0 1280 m 1,12,-1
 0 1408 l 1,13,-1
 128 1408 l 1,14,-1
 128 1536 l 1,15,-1
 256 1536 l 1,16,-1
 256 1664 l 1,17,-1
 512 1664 l 1,18,-1
 512 1536 l 1,19,-1
 640 1536 l 1,20,-1
 640 1408 l 1,21,-1
 768 1408 l 1,22,-1
 768 1280 l 1,23,-1
 512 1280 l 1,24,-1
 512 1408 l 1,25,-1
 256 1408 l 1,26,-1
 256 1280 l 1,27,-1
 0 1280 l 1,12,-1
EndSplineSet
EndChar

StartChar: Edieresis
Encoding: 203 203 133
Width: 896
GlyphClass: 2
Flags: W
LayerCount: 2
Fore
SplineSet
0 0 m 1,0,-1
 0 1152 l 1,1,-1
 768 1152 l 1,2,-1
 768 1024 l 1,3,-1
 256 1024 l 1,4,-1
 256 640 l 1,5,-1
 640 640 l 1,6,-1
 640 512 l 1,7,-1
 256 512 l 1,8,-1
 256 128 l 1,9,-1
 768 128 l 1,10,-1
 768 0 l 1,11,-1
 0 0 l 1,0,-1
0 1280 m 1,12,-1
 0 1536 l 1,13,-1
 256 1536 l 1,14,-1
 256 1280 l 1,15,-1
 0 1280 l 1,12,-1
512 1280 m 1,16,-1
 512 1536 l 1,17,-1
 768 1536 l 1,18,-1
 768 1280 l 1,19,-1
 512 1280 l 1,16,-1
EndSplineSet
EndChar

StartChar: Igrave
Encoding: 204 204 134
Width: 896
GlyphClass: 2
Flags: W
LayerCount: 2
Fore
SplineSet
0 0 m 1,0,-1
 0 128 l 1,1,-1
 256 128 l 1,2,-1
 256 1024 l 1,3,-1
 0 1024 l 1,4,-1
 0 1152 l 1,5,-1
 768 1152 l 1,6,-1
 768 1024 l 1,7,-1
 512 1024 l 1,8,-1
 512 128 l 1,9,-1
 768 128 l 1,10,-1
 768 0 l 1,11,-1
 0 0 l 1,0,-1
128 1408 m 1,12,-1
 128 1536 l 1,13,-1
 384 1536 l 1,14,-1
 384 1408 l 1,15,-1
 512 1408 l 1,16,-1
 512 1280 l 1,17,-1
 256 1280 l 1,18,-1
 256 1408 l 1,19,-1
 128 1408 l 1,12,-1
EndSplineSet
EndChar

StartChar: Iacute
Encoding: 205 205 135
Width: 896
GlyphClass: 2
Flags: W
LayerCount: 2
Fore
SplineSet
0 0 m 1,0,-1
 0 128 l 1,1,-1
 256 128 l 1,2,-1
 256 1024 l 1,3,-1
 0 1024 l 1,4,-1
 0 1152 l 1,5,-1
 768 1152 l 1,6,-1
 768 1024 l 1,7,-1
 512 1024 l 1,8,-1
 512 128 l 1,9,-1
 768 128 l 1,10,-1
 768 0 l 1,11,-1
 0 0 l 1,0,-1
256 1280 m 1,12,-1
 256 1408 l 1,13,-1
 384 1408 l 1,14,-1
 384 1536 l 1,15,-1
 640 1536 l 1,16,-1
 640 1408 l 1,17,-1
 512 1408 l 1,18,-1
 512 1280 l 1,19,-1
 256 1280 l 1,12,-1
EndSplineSet
EndChar

StartChar: Icircumflex
Encoding: 206 206 136
Width: 896
GlyphClass: 2
Flags: W
LayerCount: 2
Fore
SplineSet
0 0 m 1,0,-1
 0 128 l 1,1,-1
 256 128 l 1,2,-1
 256 1024 l 1,3,-1
 0 1024 l 1,4,-1
 0 1152 l 1,5,-1
 768 1152 l 1,6,-1
 768 1024 l 1,7,-1
 512 1024 l 1,8,-1
 512 128 l 1,9,-1
 768 128 l 1,10,-1
 768 0 l 1,11,-1
 0 0 l 1,0,-1
0 1280 m 1,12,-1
 0 1408 l 1,13,-1
 128 1408 l 1,14,-1
 128 1536 l 1,15,-1
 256 1536 l 1,16,-1
 256 1664 l 1,17,-1
 512 1664 l 1,18,-1
 512 1536 l 1,19,-1
 640 1536 l 1,20,-1
 640 1408 l 1,21,-1
 768 1408 l 1,22,-1
 768 1280 l 1,23,-1
 512 1280 l 1,24,-1
 512 1408 l 1,25,-1
 256 1408 l 1,26,-1
 256 1280 l 1,27,-1
 0 1280 l 1,12,-1
EndSplineSet
EndChar

StartChar: Idieresis
Encoding: 207 207 137
Width: 896
GlyphClass: 2
Flags: W
LayerCount: 2
Fore
SplineSet
0 0 m 1,0,-1
 0 128 l 1,1,-1
 256 128 l 1,2,-1
 256 1024 l 1,3,-1
 0 1024 l 1,4,-1
 0 1152 l 1,5,-1
 768 1152 l 1,6,-1
 768 1024 l 1,7,-1
 512 1024 l 1,8,-1
 512 128 l 1,9,-1
 768 128 l 1,10,-1
 768 0 l 1,11,-1
 0 0 l 1,0,-1
0 1280 m 1,12,-1
 0 1536 l 1,13,-1
 256 1536 l 1,14,-1
 256 1280 l 1,15,-1
 0 1280 l 1,12,-1
512 1280 m 1,16,-1
 512 1536 l 1,17,-1
 768 1536 l 1,18,-1
 768 1280 l 1,19,-1
 512 1280 l 1,16,-1
EndSplineSet
EndChar

StartChar: Eth
Encoding: 208 208 138
Width: 1024
GlyphClass: 2
Flags: W
LayerCount: 2
Fore
SplineSet
0 512 m 1,0,-1
 0 640 l 1,1,-1
 128 640 l 1,2,-1
 128 1152 l 1,3,-1
 768 1152 l 1,4,-1
 768 1024 l 1,5,-1
 896 1024 l 1,6,-1
 896 128 l 1,7,-1
 768 128 l 1,8,-1
 768 0 l 1,9,-1
 128 0 l 1,10,-1
 128 512 l 1,11,-1
 0 512 l 1,0,-1
384 128 m 1,12,-1
 640 128 l 1,13,-1
 640 1024 l 1,14,-1
 384 1024 l 1,15,-1
 384 640 l 1,16,-1
 512 640 l 1,17,-1
 512 512 l 1,18,-1
 384 512 l 1,19,-1
 384 128 l 1,12,-1
EndSplineSet
EndChar

StartChar: Ntilde
Encoding: 209 209 139
Width: 896
GlyphClass: 2
Flags: W
LayerCount: 2
Fore
SplineSet
0 0 m 1,0,-1
 0 1152 l 1,1,-1
 256 1152 l 1,2,-1
 256 896 l 1,3,-1
 384 896 l 1,4,-1
 384 640 l 1,5,-1
 512 640 l 1,6,-1
 512 1152 l 1,7,-1
 768 1152 l 1,8,-1
 768 0 l 1,9,-1
 512 0 l 1,10,-1
 512 384 l 1,11,-1
 384 384 l 1,12,-1
 384 640 l 1,13,-1
 256 640 l 1,14,-1
 256 0 l 1,15,-1
 0 0 l 1,0,-1
0 1280 m 1,16,-1
 0 1408 l 1,17,-1
 128 1408 l 1,18,-1
 128 1536 l 1,19,-1
 512 1536 l 1,20,-1
 512 1408 l 1,21,-1
 640 1408 l 1,22,-1
 640 1536 l 1,23,-1
 896 1536 l 1,24,-1
 896 1408 l 1,25,-1
 768 1408 l 1,26,-1
 768 1280 l 1,27,-1
 384 1280 l 1,28,-1
 384 1408 l 1,29,-1
 256 1408 l 1,30,-1
 256 1280 l 1,31,-1
 0 1280 l 1,16,-1
EndSplineSet
EndChar

StartChar: Ograve
Encoding: 210 210 140
Width: 896
GlyphClass: 2
Flags: W
LayerCount: 2
Fore
SplineSet
0 128 m 1,0,-1
 0 1024 l 1,1,-1
 128 1024 l 1,2,-1
 128 1152 l 1,3,-1
 640 1152 l 1,4,-1
 640 1024 l 1,5,-1
 768 1024 l 1,6,-1
 768 128 l 1,7,-1
 640 128 l 1,8,-1
 640 0 l 1,9,-1
 128 0 l 1,10,-1
 128 128 l 1,11,-1
 0 128 l 1,0,-1
128 1408 m 1,12,-1
 128 1536 l 1,13,-1
 384 1536 l 1,14,-1
 384 1408 l 1,15,-1
 512 1408 l 1,16,-1
 512 1280 l 1,17,-1
 256 1280 l 1,18,-1
 256 1408 l 1,19,-1
 128 1408 l 1,12,-1
256 128 m 1,20,-1
 512 128 l 1,21,-1
 512 1024 l 1,22,-1
 256 1024 l 1,23,-1
 256 128 l 1,20,-1
EndSplineSet
EndChar

StartChar: Oacute
Encoding: 211 211 141
Width: 896
GlyphClass: 2
Flags: W
LayerCount: 2
Fore
SplineSet
0 128 m 1,0,-1
 0 1024 l 1,1,-1
 128 1024 l 1,2,-1
 128 1152 l 1,3,-1
 640 1152 l 1,4,-1
 640 1024 l 1,5,-1
 768 1024 l 1,6,-1
 768 128 l 1,7,-1
 640 128 l 1,8,-1
 640 0 l 1,9,-1
 128 0 l 1,10,-1
 128 128 l 1,11,-1
 0 128 l 1,0,-1
256 128 m 1,12,-1
 512 128 l 1,13,-1
 512 1024 l 1,14,-1
 256 1024 l 1,15,-1
 256 128 l 1,12,-1
256 1280 m 1,16,-1
 256 1408 l 1,17,-1
 384 1408 l 1,18,-1
 384 1536 l 1,19,-1
 640 1536 l 1,20,-1
 640 1408 l 1,21,-1
 512 1408 l 1,22,-1
 512 1280 l 1,23,-1
 256 1280 l 1,16,-1
EndSplineSet
EndChar

StartChar: Ocircumflex
Encoding: 212 212 142
Width: 896
GlyphClass: 2
Flags: W
LayerCount: 2
Fore
SplineSet
0 128 m 1,0,-1
 0 1024 l 1,1,-1
 128 1024 l 1,2,-1
 128 1152 l 1,3,-1
 640 1152 l 1,4,-1
 640 1024 l 1,5,-1
 768 1024 l 1,6,-1
 768 128 l 1,7,-1
 640 128 l 1,8,-1
 640 0 l 1,9,-1
 128 0 l 1,10,-1
 128 128 l 1,11,-1
 0 128 l 1,0,-1
0 1280 m 1,12,-1
 0 1408 l 1,13,-1
 128 1408 l 1,14,-1
 128 1536 l 1,15,-1
 256 1536 l 1,16,-1
 256 1664 l 1,17,-1
 512 1664 l 1,18,-1
 512 1536 l 1,19,-1
 640 1536 l 1,20,-1
 640 1408 l 1,21,-1
 768 1408 l 1,22,-1
 768 1280 l 1,23,-1
 512 1280 l 1,24,-1
 512 1408 l 1,25,-1
 256 1408 l 1,26,-1
 256 1280 l 1,27,-1
 0 1280 l 1,12,-1
256 128 m 1,28,-1
 512 128 l 1,29,-1
 512 1024 l 1,30,-1
 256 1024 l 1,31,-1
 256 128 l 1,28,-1
EndSplineSet
EndChar

StartChar: Otilde
Encoding: 213 213 143
Width: 896
GlyphClass: 2
Flags: W
LayerCount: 2
Fore
SplineSet
0 128 m 1,0,-1
 0 1024 l 1,1,-1
 128 1024 l 1,2,-1
 128 1152 l 1,3,-1
 640 1152 l 1,4,-1
 640 1024 l 1,5,-1
 768 1024 l 1,6,-1
 768 128 l 1,7,-1
 640 128 l 1,8,-1
 640 0 l 1,9,-1
 128 0 l 1,10,-1
 128 128 l 1,11,-1
 0 128 l 1,0,-1
0 1280 m 1,12,-1
 0 1408 l 1,13,-1
 128 1408 l 1,14,-1
 128 1536 l 1,15,-1
 512 1536 l 1,16,-1
 512 1408 l 1,17,-1
 640 1408 l 1,18,-1
 640 1536 l 1,19,-1
 896 1536 l 1,20,-1
 896 1408 l 1,21,-1
 768 1408 l 1,22,-1
 768 1280 l 1,23,-1
 384 1280 l 1,24,-1
 384 1408 l 1,25,-1
 256 1408 l 1,26,-1
 256 1280 l 1,27,-1
 0 1280 l 1,12,-1
256 128 m 1,28,-1
 512 128 l 1,29,-1
 512 1024 l 1,30,-1
 256 1024 l 1,31,-1
 256 128 l 1,28,-1
EndSplineSet
EndChar

StartChar: Odieresis
Encoding: 214 214 144
Width: 896
GlyphClass: 2
Flags: W
LayerCount: 2
Fore
SplineSet
0 128 m 1,0,-1
 0 1024 l 1,1,-1
 128 1024 l 1,2,-1
 128 1152 l 1,3,-1
 640 1152 l 1,4,-1
 640 1024 l 1,5,-1
 768 1024 l 1,6,-1
 768 128 l 1,7,-1
 640 128 l 1,8,-1
 640 0 l 1,9,-1
 128 0 l 1,10,-1
 128 128 l 1,11,-1
 0 128 l 1,0,-1
0 1280 m 1,12,-1
 0 1536 l 1,13,-1
 256 1536 l 1,14,-1
 256 1280 l 1,15,-1
 0 1280 l 1,12,-1
256 128 m 1,16,-1
 512 128 l 1,17,-1
 512 1024 l 1,18,-1
 256 1024 l 1,19,-1
 256 128 l 1,16,-1
512 1280 m 1,20,-1
 512 1536 l 1,21,-1
 768 1536 l 1,22,-1
 768 1280 l 1,23,-1
 512 1280 l 1,20,-1
EndSplineSet
EndChar

StartChar: multiply
Encoding: 215 215 145
Width: 896
GlyphClass: 2
Flags: W
LayerCount: 2
Fore
SplineSet
0 128 m 1,0,-1
 0 256 l 1,1,-1
 128 256 l 1,2,-1
 128 384 l 1,3,-1
 256 384 l 1,4,-1
 256 512 l 1,5,-1
 128 512 l 1,6,-1
 128 640 l 1,7,-1
 0 640 l 1,8,-1
 0 768 l 1,9,-1
 256 768 l 1,10,-1
 256 640 l 1,11,-1
 512 640 l 1,12,-1
 512 768 l 1,13,-1
 768 768 l 1,14,-1
 768 640 l 1,15,-1
 640 640 l 1,16,-1
 640 512 l 1,17,-1
 512 512 l 1,18,-1
 512 384 l 1,19,-1
 640 384 l 1,20,-1
 640 256 l 1,21,-1
 768 256 l 1,22,-1
 768 128 l 1,23,-1
 512 128 l 1,24,-1
 512 256 l 1,25,-1
 256 256 l 1,26,-1
 256 128 l 1,27,-1
 0 128 l 1,0,-1
EndSplineSet
EndChar

StartChar: Oslash
Encoding: 216 216 146
Width: 1152
GlyphClass: 2
Flags: W
LayerCount: 2
Fore
SplineSet
0 0 m 1,0,-1
 0 256 l 1,1,-1
 128 256 l 1,2,-1
 128 1024 l 1,3,-1
 256 1024 l 1,4,-1
 256 1152 l 1,5,-1
 768 1152 l 1,6,-1
 768 1024 l 1,7,-1
 896 1024 l 1,8,-1
 896 1152 l 1,9,-1
 1024 1152 l 1,10,-1
 1024 896 l 1,11,-1
 896 896 l 1,12,-1
 896 128 l 1,13,-1
 768 128 l 1,14,-1
 768 0 l 1,15,-1
 256 0 l 1,16,-1
 256 128 l 1,17,-1
 128 128 l 1,18,-1
 128 0 l 1,19,-1
 0 0 l 1,0,-1
384 128 m 1,20,-1
 640 128 l 1,21,-1
 640 512 l 1,22,-1
 512 512 l 1,23,-1
 512 384 l 1,24,-1
 384 384 l 1,25,-1
 384 128 l 1,20,-1
384 640 m 1,26,-1
 512 640 l 1,27,-1
 512 768 l 1,28,-1
 640 768 l 1,29,-1
 640 1024 l 1,30,-1
 384 1024 l 1,31,-1
 384 640 l 1,26,-1
EndSplineSet
EndChar

StartChar: Ugrave
Encoding: 217 217 147
Width: 896
GlyphClass: 2
Flags: W
LayerCount: 2
Fore
SplineSet
0 128 m 1,0,-1
 0 1152 l 1,1,-1
 256 1152 l 1,2,-1
 256 128 l 1,3,-1
 512 128 l 1,4,-1
 512 1152 l 1,5,-1
 768 1152 l 1,6,-1
 768 128 l 1,7,-1
 640 128 l 1,8,-1
 640 0 l 1,9,-1
 128 0 l 1,10,-1
 128 128 l 1,11,-1
 0 128 l 1,0,-1
128 1408 m 1,12,-1
 128 1536 l 1,13,-1
 384 1536 l 1,14,-1
 384 1408 l 1,15,-1
 512 1408 l 1,16,-1
 512 1280 l 1,17,-1
 256 1280 l 1,18,-1
 256 1408 l 1,19,-1
 128 1408 l 1,12,-1
EndSplineSet
EndChar

StartChar: Uacute
Encoding: 218 218 148
Width: 896
GlyphClass: 2
Flags: W
LayerCount: 2
Fore
SplineSet
0 128 m 1,0,-1
 0 1152 l 1,1,-1
 256 1152 l 1,2,-1
 256 128 l 1,3,-1
 512 128 l 1,4,-1
 512 1152 l 1,5,-1
 768 1152 l 1,6,-1
 768 128 l 1,7,-1
 640 128 l 1,8,-1
 640 0 l 1,9,-1
 128 0 l 1,10,-1
 128 128 l 1,11,-1
 0 128 l 1,0,-1
256 1280 m 1,12,-1
 256 1408 l 1,13,-1
 384 1408 l 1,14,-1
 384 1536 l 1,15,-1
 640 1536 l 1,16,-1
 640 1408 l 1,17,-1
 512 1408 l 1,18,-1
 512 1280 l 1,19,-1
 256 1280 l 1,12,-1
EndSplineSet
EndChar

StartChar: Ucircumflex
Encoding: 219 219 149
Width: 896
GlyphClass: 2
Flags: W
LayerCount: 2
Fore
SplineSet
0 128 m 1,0,-1
 0 1152 l 1,1,-1
 256 1152 l 1,2,-1
 256 128 l 1,3,-1
 512 128 l 1,4,-1
 512 1152 l 1,5,-1
 768 1152 l 1,6,-1
 768 128 l 1,7,-1
 640 128 l 1,8,-1
 640 0 l 1,9,-1
 128 0 l 1,10,-1
 128 128 l 1,11,-1
 0 128 l 1,0,-1
0 1280 m 1,12,-1
 0 1408 l 1,13,-1
 128 1408 l 1,14,-1
 128 1536 l 1,15,-1
 256 1536 l 1,16,-1
 256 1664 l 1,17,-1
 512 1664 l 1,18,-1
 512 1536 l 1,19,-1
 640 1536 l 1,20,-1
 640 1408 l 1,21,-1
 768 1408 l 1,22,-1
 768 1280 l 1,23,-1
 512 1280 l 1,24,-1
 512 1408 l 1,25,-1
 256 1408 l 1,26,-1
 256 1280 l 1,27,-1
 0 1280 l 1,12,-1
EndSplineSet
EndChar

StartChar: Udieresis
Encoding: 220 220 150
Width: 896
GlyphClass: 2
Flags: W
LayerCount: 2
Fore
SplineSet
0 128 m 1,0,-1
 0 1152 l 1,1,-1
 256 1152 l 1,2,-1
 256 128 l 1,3,-1
 512 128 l 1,4,-1
 512 1152 l 1,5,-1
 768 1152 l 1,6,-1
 768 128 l 1,7,-1
 640 128 l 1,8,-1
 640 0 l 1,9,-1
 128 0 l 1,10,-1
 128 128 l 1,11,-1
 0 128 l 1,0,-1
0 1280 m 1,12,-1
 0 1536 l 1,13,-1
 256 1536 l 1,14,-1
 256 1280 l 1,15,-1
 0 1280 l 1,12,-1
512 1280 m 1,16,-1
 512 1536 l 1,17,-1
 768 1536 l 1,18,-1
 768 1280 l 1,19,-1
 512 1280 l 1,16,-1
EndSplineSet
EndChar

StartChar: Yacute
Encoding: 221 221 151
Width: 896
GlyphClass: 2
Flags: W
LayerCount: 2
Fore
SplineSet
0 640 m 1,0,-1
 0 1152 l 1,1,-1
 256 1152 l 1,2,-1
 256 640 l 1,3,-1
 512 640 l 1,4,-1
 512 1152 l 1,5,-1
 768 1152 l 1,6,-1
 768 640 l 1,7,-1
 640 640 l 1,8,-1
 640 512 l 1,9,-1
 512 512 l 1,10,-1
 512 0 l 1,11,-1
 256 0 l 1,12,-1
 256 512 l 1,13,-1
 128 512 l 1,14,-1
 128 640 l 1,15,-1
 0 640 l 1,0,-1
256 1280 m 1,16,-1
 256 1408 l 1,17,-1
 384 1408 l 1,18,-1
 384 1536 l 1,19,-1
 640 1536 l 1,20,-1
 640 1408 l 1,21,-1
 512 1408 l 1,22,-1
 512 1280 l 1,23,-1
 256 1280 l 1,16,-1
EndSplineSet
EndChar

StartChar: Thorn
Encoding: 222 222 152
Width: 896
GlyphClass: 2
Flags: W
LayerCount: 2
Fore
SplineSet
0 0 m 1,0,-1
 0 1152 l 1,1,-1
 256 1152 l 1,2,-1
 256 896 l 1,3,-1
 640 896 l 1,4,-1
 640 768 l 1,5,-1
 768 768 l 1,6,-1
 768 384 l 1,7,-1
 640 384 l 1,8,-1
 640 256 l 1,9,-1
 256 256 l 1,10,-1
 256 0 l 1,11,-1
 0 0 l 1,0,-1
256 384 m 1,12,-1
 512 384 l 1,13,-1
 512 768 l 1,14,-1
 256 768 l 1,15,-1
 256 384 l 1,12,-1
EndSplineSet
EndChar

StartChar: germandbls
Encoding: 223 223 153
Width: 896
GlyphClass: 2
Flags: W
LayerCount: 2
Fore
SplineSet
0 0 m 1,0,-1
 0 1024 l 1,1,-1
 128 1024 l 1,2,-1
 128 1152 l 1,3,-1
 640 1152 l 1,4,-1
 640 1024 l 1,5,-1
 768 1024 l 1,6,-1
 768 640 l 1,7,-1
 640 640 l 1,8,-1
 640 512 l 1,9,-1
 768 512 l 1,10,-1
 768 128 l 1,11,-1
 640 128 l 1,12,-1
 640 0 l 1,13,-1
 384 0 l 1,14,-1
 384 128 l 1,15,-1
 512 128 l 1,16,-1
 512 512 l 1,17,-1
 384 512 l 1,18,-1
 384 640 l 1,19,-1
 512 640 l 1,20,-1
 512 1024 l 1,21,-1
 256 1024 l 1,22,-1
 256 0 l 1,23,-1
 0 0 l 1,0,-1
EndSplineSet
EndChar

StartChar: agrave
Encoding: 224 224 154
Width: 896
GlyphClass: 2
Flags: W
LayerCount: 2
Fore
SplineSet
0 128 m 1,0,-1
 0 384 l 1,1,-1
 128 384 l 1,2,-1
 128 512 l 1,3,-1
 512 512 l 1,4,-1
 512 768 l 1,5,-1
 256 768 l 1,6,-1
 256 640 l 1,7,-1
 0 640 l 1,8,-1
 0 768 l 1,9,-1
 128 768 l 1,10,-1
 128 896 l 1,11,-1
 640 896 l 1,12,-1
 640 768 l 1,13,-1
 768 768 l 1,14,-1
 768 0 l 1,15,-1
 128 0 l 1,16,-1
 128 128 l 1,17,-1
 0 128 l 1,0,-1
128 1152 m 1,18,-1
 128 1280 l 1,19,-1
 384 1280 l 1,20,-1
 384 1152 l 1,21,-1
 512 1152 l 1,22,-1
 512 1024 l 1,23,-1
 256 1024 l 1,24,-1
 256 1152 l 1,25,-1
 128 1152 l 1,18,-1
256 128 m 1,26,-1
 512 128 l 1,27,-1
 512 384 l 1,28,-1
 256 384 l 1,29,-1
 256 128 l 1,26,-1
EndSplineSet
EndChar

StartChar: aacute
Encoding: 225 225 155
Width: 896
GlyphClass: 2
Flags: W
LayerCount: 2
Fore
SplineSet
0 128 m 1,0,-1
 0 384 l 1,1,-1
 128 384 l 1,2,-1
 128 512 l 1,3,-1
 512 512 l 1,4,-1
 512 768 l 1,5,-1
 256 768 l 1,6,-1
 256 640 l 1,7,-1
 0 640 l 1,8,-1
 0 768 l 1,9,-1
 128 768 l 1,10,-1
 128 896 l 1,11,-1
 640 896 l 1,12,-1
 640 768 l 1,13,-1
 768 768 l 1,14,-1
 768 0 l 1,15,-1
 128 0 l 1,16,-1
 128 128 l 1,17,-1
 0 128 l 1,0,-1
256 128 m 1,18,-1
 512 128 l 1,19,-1
 512 384 l 1,20,-1
 256 384 l 1,21,-1
 256 128 l 1,18,-1
256 1024 m 1,22,-1
 256 1152 l 1,23,-1
 384 1152 l 1,24,-1
 384 1280 l 1,25,-1
 640 1280 l 1,26,-1
 640 1152 l 1,27,-1
 512 1152 l 1,28,-1
 512 1024 l 1,29,-1
 256 1024 l 1,22,-1
EndSplineSet
EndChar

StartChar: acircumflex
Encoding: 226 226 156
Width: 896
GlyphClass: 2
Flags: W
LayerCount: 2
Fore
SplineSet
0 128 m 1,0,-1
 0 384 l 1,1,-1
 128 384 l 1,2,-1
 128 512 l 1,3,-1
 512 512 l 1,4,-1
 512 768 l 1,5,-1
 256 768 l 1,6,-1
 256 640 l 1,7,-1
 0 640 l 1,8,-1
 0 768 l 1,9,-1
 128 768 l 1,10,-1
 128 896 l 1,11,-1
 640 896 l 1,12,-1
 640 768 l 1,13,-1
 768 768 l 1,14,-1
 768 0 l 1,15,-1
 128 0 l 1,16,-1
 128 128 l 1,17,-1
 0 128 l 1,0,-1
0 1024 m 1,18,-1
 0 1152 l 1,19,-1
 128 1152 l 1,20,-1
 128 1280 l 1,21,-1
 256 1280 l 1,22,-1
 256 1408 l 1,23,-1
 512 1408 l 1,24,-1
 512 1280 l 1,25,-1
 640 1280 l 1,26,-1
 640 1152 l 1,27,-1
 768 1152 l 1,28,-1
 768 1024 l 1,29,-1
 512 1024 l 1,30,-1
 512 1152 l 1,31,-1
 256 1152 l 1,32,-1
 256 1024 l 1,33,-1
 0 1024 l 1,18,-1
256 128 m 1,34,-1
 512 128 l 1,35,-1
 512 384 l 1,36,-1
 256 384 l 1,37,-1
 256 128 l 1,34,-1
EndSplineSet
EndChar

StartChar: atilde
Encoding: 227 227 157
Width: 896
GlyphClass: 2
Flags: W
LayerCount: 2
Fore
SplineSet
0 128 m 1,0,-1
 0 384 l 1,1,-1
 128 384 l 1,2,-1
 128 512 l 1,3,-1
 512 512 l 1,4,-1
 512 768 l 1,5,-1
 256 768 l 1,6,-1
 256 640 l 1,7,-1
 0 640 l 1,8,-1
 0 768 l 1,9,-1
 128 768 l 1,10,-1
 128 896 l 1,11,-1
 640 896 l 1,12,-1
 640 768 l 1,13,-1
 768 768 l 1,14,-1
 768 0 l 1,15,-1
 128 0 l 1,16,-1
 128 128 l 1,17,-1
 0 128 l 1,0,-1
0 1024 m 1,18,-1
 0 1152 l 1,19,-1
 128 1152 l 1,20,-1
 128 1280 l 1,21,-1
 512 1280 l 1,22,-1
 512 1152 l 1,23,-1
 640 1152 l 1,24,-1
 640 1280 l 1,25,-1
 896 1280 l 1,26,-1
 896 1152 l 1,27,-1
 768 1152 l 1,28,-1
 768 1024 l 1,29,-1
 384 1024 l 1,30,-1
 384 1152 l 1,31,-1
 256 1152 l 1,32,-1
 256 1024 l 1,33,-1
 0 1024 l 1,18,-1
256 128 m 1,34,-1
 512 128 l 1,35,-1
 512 384 l 1,36,-1
 256 384 l 1,37,-1
 256 128 l 1,34,-1
EndSplineSet
EndChar

StartChar: adieresis
Encoding: 228 228 158
Width: 896
GlyphClass: 2
Flags: W
LayerCount: 2
Fore
SplineSet
0 128 m 1,0,-1
 0 384 l 1,1,-1
 128 384 l 1,2,-1
 128 512 l 1,3,-1
 512 512 l 1,4,-1
 512 768 l 1,5,-1
 256 768 l 1,6,-1
 256 640 l 1,7,-1
 0 640 l 1,8,-1
 0 768 l 1,9,-1
 128 768 l 1,10,-1
 128 896 l 1,11,-1
 640 896 l 1,12,-1
 640 768 l 1,13,-1
 768 768 l 1,14,-1
 768 0 l 1,15,-1
 128 0 l 1,16,-1
 128 128 l 1,17,-1
 0 128 l 1,0,-1
0 1024 m 1,18,-1
 0 1280 l 1,19,-1
 256 1280 l 1,20,-1
 256 1024 l 1,21,-1
 0 1024 l 1,18,-1
256 128 m 1,22,-1
 512 128 l 1,23,-1
 512 384 l 1,24,-1
 256 384 l 1,25,-1
 256 128 l 1,22,-1
512 1024 m 1,26,-1
 512 1280 l 1,27,-1
 768 1280 l 1,28,-1
 768 1024 l 1,29,-1
 512 1024 l 1,26,-1
EndSplineSet
EndChar

StartChar: aring
Encoding: 229 229 159
Width: 896
GlyphClass: 2
Flags: W
LayerCount: 2
Fore
SplineSet
0 128 m 1,0,-1
 0 384 l 1,1,-1
 128 384 l 1,2,-1
 128 512 l 1,3,-1
 512 512 l 1,4,-1
 512 768 l 1,5,-1
 256 768 l 1,6,-1
 256 640 l 1,7,-1
 0 640 l 1,8,-1
 0 768 l 1,9,-1
 128 768 l 1,10,-1
 128 896 l 1,11,-1
 640 896 l 1,12,-1
 640 768 l 1,13,-1
 768 768 l 1,14,-1
 768 0 l 1,15,-1
 128 0 l 1,16,-1
 128 128 l 1,17,-1
 0 128 l 1,0,-1
0 1152 m 1,18,-1
 0 1280 l 1,19,-1
 128 1280 l 1,20,-1
 128 1408 l 1,21,-1
 640 1408 l 1,22,-1
 640 1280 l 1,23,-1
 768 1280 l 1,24,-1
 768 1152 l 1,25,-1
 640 1152 l 1,26,-1
 640 1024 l 1,27,-1
 128 1024 l 1,28,-1
 128 1152 l 1,29,-1
 0 1152 l 1,18,-1
256 128 m 1,30,-1
 512 128 l 1,31,-1
 512 384 l 1,32,-1
 256 384 l 1,33,-1
 256 128 l 1,30,-1
256 1152 m 1,34,-1
 512 1152 l 1,35,-1
 512 1280 l 1,36,-1
 256 1280 l 1,37,-1
 256 1152 l 1,34,-1
EndSplineSet
EndChar

StartChar: ae
Encoding: 230 230 160
Width: 1152
GlyphClass: 2
Flags: W
LayerCount: 2
Fore
SplineSet
0 128 m 1,0,-1
 0 384 l 1,1,-1
 128 384 l 1,2,-1
 128 512 l 1,3,-1
 384 512 l 1,4,-1
 384 768 l 1,5,-1
 256 768 l 1,6,-1
 256 640 l 1,7,-1
 0 640 l 1,8,-1
 0 768 l 1,9,-1
 128 768 l 1,10,-1
 128 896 l 1,11,-1
 512 896 l 1,12,-1
 512 768 l 1,13,-1
 640 768 l 1,14,-1
 640 896 l 1,15,-1
 896 896 l 1,16,-1
 896 768 l 1,17,-1
 1024 768 l 1,18,-1
 1024 384 l 1,19,-1
 640 384 l 1,20,-1
 640 128 l 1,21,-1
 768 128 l 1,22,-1
 768 256 l 1,23,-1
 1024 256 l 1,24,-1
 1024 128 l 1,25,-1
 896 128 l 1,26,-1
 896 0 l 1,27,-1
 512 0 l 1,28,-1
 512 128 l 1,29,-1
 384 128 l 1,30,-1
 384 0 l 1,31,-1
 128 0 l 1,32,-1
 128 128 l 1,33,-1
 0 128 l 1,0,-1
256 128 m 1,34,-1
 384 128 l 1,35,-1
 384 384 l 1,36,-1
 256 384 l 1,37,-1
 256 128 l 1,34,-1
640 512 m 1,38,-1
 768 512 l 1,39,-1
 768 768 l 1,40,-1
 640 768 l 1,41,-1
 640 512 l 1,38,-1
EndSplineSet
EndChar

StartChar: ccedilla
Encoding: 231 231 161
Width: 896
GlyphClass: 2
Flags: W
LayerCount: 2
Fore
SplineSet
0 128 m 1,0,-1
 0 768 l 1,1,-1
 128 768 l 1,2,-1
 128 896 l 1,3,-1
 640 896 l 1,4,-1
 640 768 l 1,5,-1
 768 768 l 1,6,-1
 768 512 l 1,7,-1
 512 512 l 1,8,-1
 512 768 l 1,9,-1
 256 768 l 1,10,-1
 256 128 l 1,11,-1
 512 128 l 1,12,-1
 512 384 l 1,13,-1
 768 384 l 1,14,-1
 768 128 l 1,15,-1
 640 128 l 1,16,-1
 640 0 l 1,17,-1
 512 0 l 1,18,-1
 512 -128 l 1,19,-1
 640 -128 l 1,20,-1
 640 -256 l 1,21,-1
 512 -256 l 1,22,-1
 512 -384 l 1,23,-1
 0 -384 l 1,24,-1
 0 -256 l 1,25,-1
 384 -256 l 1,26,-1
 384 -128 l 1,27,-1
 256 -128 l 1,28,-1
 256 0 l 1,29,-1
 128 0 l 1,30,-1
 128 128 l 1,31,-1
 0 128 l 1,0,-1
EndSplineSet
EndChar

StartChar: egrave
Encoding: 232 232 162
Width: 896
GlyphClass: 2
Flags: W
LayerCount: 2
Fore
SplineSet
0 128 m 1,0,-1
 0 768 l 1,1,-1
 128 768 l 1,2,-1
 128 896 l 1,3,-1
 640 896 l 1,4,-1
 640 768 l 1,5,-1
 768 768 l 1,6,-1
 768 384 l 1,7,-1
 256 384 l 1,8,-1
 256 128 l 1,9,-1
 512 128 l 1,10,-1
 512 256 l 1,11,-1
 768 256 l 1,12,-1
 768 128 l 1,13,-1
 640 128 l 1,14,-1
 640 0 l 1,15,-1
 128 0 l 1,16,-1
 128 128 l 1,17,-1
 0 128 l 1,0,-1
128 1152 m 1,18,-1
 128 1280 l 1,19,-1
 384 1280 l 1,20,-1
 384 1152 l 1,21,-1
 512 1152 l 1,22,-1
 512 1024 l 1,23,-1
 256 1024 l 1,24,-1
 256 1152 l 1,25,-1
 128 1152 l 1,18,-1
256 512 m 1,26,-1
 512 512 l 1,27,-1
 512 768 l 1,28,-1
 256 768 l 1,29,-1
 256 512 l 1,26,-1
EndSplineSet
EndChar

StartChar: eacute
Encoding: 233 233 163
Width: 896
GlyphClass: 2
Flags: W
LayerCount: 2
Fore
SplineSet
0 128 m 1,0,-1
 0 768 l 1,1,-1
 128 768 l 1,2,-1
 128 896 l 1,3,-1
 640 896 l 1,4,-1
 640 768 l 1,5,-1
 768 768 l 1,6,-1
 768 384 l 1,7,-1
 256 384 l 1,8,-1
 256 128 l 1,9,-1
 512 128 l 1,10,-1
 512 256 l 1,11,-1
 768 256 l 1,12,-1
 768 128 l 1,13,-1
 640 128 l 1,14,-1
 640 0 l 1,15,-1
 128 0 l 1,16,-1
 128 128 l 1,17,-1
 0 128 l 1,0,-1
256 512 m 1,18,-1
 512 512 l 1,19,-1
 512 768 l 1,20,-1
 256 768 l 1,21,-1
 256 512 l 1,18,-1
256 1024 m 1,22,-1
 256 1152 l 1,23,-1
 384 1152 l 1,24,-1
 384 1280 l 1,25,-1
 640 1280 l 1,26,-1
 640 1152 l 1,27,-1
 512 1152 l 1,28,-1
 512 1024 l 1,29,-1
 256 1024 l 1,22,-1
EndSplineSet
EndChar

StartChar: ecircumflex
Encoding: 234 234 164
Width: 896
GlyphClass: 2
Flags: W
LayerCount: 2
Fore
SplineSet
0 128 m 1,0,-1
 0 768 l 1,1,-1
 128 768 l 1,2,-1
 128 896 l 1,3,-1
 640 896 l 1,4,-1
 640 768 l 1,5,-1
 768 768 l 1,6,-1
 768 384 l 1,7,-1
 256 384 l 1,8,-1
 256 128 l 1,9,-1
 512 128 l 1,10,-1
 512 256 l 1,11,-1
 768 256 l 1,12,-1
 768 128 l 1,13,-1
 640 128 l 1,14,-1
 640 0 l 1,15,-1
 128 0 l 1,16,-1
 128 128 l 1,17,-1
 0 128 l 1,0,-1
0 1024 m 1,18,-1
 0 1152 l 1,19,-1
 128 1152 l 1,20,-1
 128 1280 l 1,21,-1
 256 1280 l 1,22,-1
 256 1408 l 1,23,-1
 512 1408 l 1,24,-1
 512 1280 l 1,25,-1
 640 1280 l 1,26,-1
 640 1152 l 1,27,-1
 768 1152 l 1,28,-1
 768 1024 l 1,29,-1
 512 1024 l 1,30,-1
 512 1152 l 1,31,-1
 256 1152 l 1,32,-1
 256 1024 l 1,33,-1
 0 1024 l 1,18,-1
256 512 m 1,34,-1
 512 512 l 1,35,-1
 512 768 l 1,36,-1
 256 768 l 1,37,-1
 256 512 l 1,34,-1
EndSplineSet
EndChar

StartChar: edieresis
Encoding: 235 235 165
Width: 896
GlyphClass: 2
Flags: W
LayerCount: 2
Fore
SplineSet
0 128 m 1,0,-1
 0 768 l 1,1,-1
 128 768 l 1,2,-1
 128 896 l 1,3,-1
 640 896 l 1,4,-1
 640 768 l 1,5,-1
 768 768 l 1,6,-1
 768 384 l 1,7,-1
 256 384 l 1,8,-1
 256 128 l 1,9,-1
 512 128 l 1,10,-1
 512 256 l 1,11,-1
 768 256 l 1,12,-1
 768 128 l 1,13,-1
 640 128 l 1,14,-1
 640 0 l 1,15,-1
 128 0 l 1,16,-1
 128 128 l 1,17,-1
 0 128 l 1,0,-1
0 1024 m 1,18,-1
 0 1280 l 1,19,-1
 256 1280 l 1,20,-1
 256 1024 l 1,21,-1
 0 1024 l 1,18,-1
256 512 m 1,22,-1
 512 512 l 1,23,-1
 512 768 l 1,24,-1
 256 768 l 1,25,-1
 256 512 l 1,22,-1
512 1024 m 1,26,-1
 512 1280 l 1,27,-1
 768 1280 l 1,28,-1
 768 1024 l 1,29,-1
 512 1024 l 1,26,-1
EndSplineSet
EndChar

StartChar: igrave
Encoding: 236 236 166
Width: 896
GlyphClass: 2
Flags: W
LayerCount: 2
Fore
SplineSet
0 0 m 1,0,-1
 0 128 l 1,1,-1
 256 128 l 1,2,-1
 256 768 l 1,3,-1
 0 768 l 1,4,-1
 0 896 l 1,5,-1
 512 896 l 1,6,-1
 512 128 l 1,7,-1
 768 128 l 1,8,-1
 768 0 l 1,9,-1
 0 0 l 1,0,-1
128 1152 m 1,10,-1
 128 1280 l 1,11,-1
 384 1280 l 1,12,-1
 384 1152 l 1,13,-1
 512 1152 l 1,14,-1
 512 1024 l 1,15,-1
 256 1024 l 1,16,-1
 256 1152 l 1,17,-1
 128 1152 l 1,10,-1
EndSplineSet
EndChar

StartChar: iacute
Encoding: 237 237 167
Width: 896
GlyphClass: 2
Flags: W
LayerCount: 2
Fore
SplineSet
0 0 m 1,0,-1
 0 128 l 1,1,-1
 256 128 l 1,2,-1
 256 768 l 1,3,-1
 0 768 l 1,4,-1
 0 896 l 1,5,-1
 512 896 l 1,6,-1
 512 128 l 1,7,-1
 768 128 l 1,8,-1
 768 0 l 1,9,-1
 0 0 l 1,0,-1
256 1024 m 1,10,-1
 256 1152 l 1,11,-1
 384 1152 l 1,12,-1
 384 1280 l 1,13,-1
 640 1280 l 1,14,-1
 640 1152 l 1,15,-1
 512 1152 l 1,16,-1
 512 1024 l 1,17,-1
 256 1024 l 1,10,-1
EndSplineSet
EndChar

StartChar: icircumflex
Encoding: 238 238 168
Width: 896
GlyphClass: 2
Flags: W
LayerCount: 2
Fore
SplineSet
0 0 m 1,0,-1
 0 128 l 1,1,-1
 256 128 l 1,2,-1
 256 768 l 1,3,-1
 0 768 l 1,4,-1
 0 896 l 1,5,-1
 512 896 l 1,6,-1
 512 128 l 1,7,-1
 768 128 l 1,8,-1
 768 0 l 1,9,-1
 0 0 l 1,0,-1
0 1024 m 1,10,-1
 0 1152 l 1,11,-1
 128 1152 l 1,12,-1
 128 1280 l 1,13,-1
 256 1280 l 1,14,-1
 256 1408 l 1,15,-1
 512 1408 l 1,16,-1
 512 1280 l 1,17,-1
 640 1280 l 1,18,-1
 640 1152 l 1,19,-1
 768 1152 l 1,20,-1
 768 1024 l 1,21,-1
 512 1024 l 1,22,-1
 512 1152 l 1,23,-1
 256 1152 l 1,24,-1
 256 1024 l 1,25,-1
 0 1024 l 1,10,-1
EndSplineSet
EndChar

StartChar: idieresis
Encoding: 239 239 169
Width: 896
GlyphClass: 2
Flags: W
LayerCount: 2
Fore
SplineSet
0 0 m 1,0,-1
 0 128 l 1,1,-1
 256 128 l 1,2,-1
 256 768 l 1,3,-1
 0 768 l 1,4,-1
 0 896 l 1,5,-1
 512 896 l 1,6,-1
 512 128 l 1,7,-1
 768 128 l 1,8,-1
 768 0 l 1,9,-1
 0 0 l 1,0,-1
0 1024 m 1,10,-1
 0 1280 l 1,11,-1
 256 1280 l 1,12,-1
 256 1024 l 1,13,-1
 0 1024 l 1,10,-1
512 1024 m 1,14,-1
 512 1280 l 1,15,-1
 768 1280 l 1,16,-1
 768 1024 l 1,17,-1
 512 1024 l 1,14,-1
EndSplineSet
EndChar

StartChar: eth
Encoding: 240 240 170
Width: 1024
GlyphClass: 2
Flags: W
LayerCount: 2
Fore
SplineSet
0 128 m 1,0,-1
 0 640 l 1,1,-1
 128 640 l 1,2,-1
 128 768 l 1,3,-1
 512 768 l 1,4,-1
 512 896 l 1,5,-1
 256 896 l 1,6,-1
 256 1024 l 1,7,-1
 384 1024 l 1,8,-1
 384 1152 l 1,9,-1
 640 1152 l 1,10,-1
 640 1024 l 1,11,-1
 896 1024 l 1,12,-1
 896 896 l 1,13,-1
 768 896 l 1,14,-1
 768 128 l 1,15,-1
 640 128 l 1,16,-1
 640 0 l 1,17,-1
 128 0 l 1,18,-1
 128 128 l 1,19,-1
 0 128 l 1,0,-1
256 128 m 1,20,-1
 512 128 l 1,21,-1
 512 640 l 1,22,-1
 256 640 l 1,23,-1
 256 128 l 1,20,-1
EndSplineSet
EndChar

StartChar: ntilde
Encoding: 241 241 171
Width: 896
GlyphClass: 2
Flags: W
LayerCount: 2
Fore
SplineSet
0 0 m 1,0,-1
 0 896 l 1,1,-1
 640 896 l 1,2,-1
 640 768 l 1,3,-1
 768 768 l 1,4,-1
 768 0 l 1,5,-1
 512 0 l 1,6,-1
 512 768 l 1,7,-1
 256 768 l 1,8,-1
 256 0 l 1,9,-1
 0 0 l 1,0,-1
0 1024 m 1,10,-1
 0 1152 l 1,11,-1
 128 1152 l 1,12,-1
 128 1280 l 1,13,-1
 512 1280 l 1,14,-1
 512 1152 l 1,15,-1
 640 1152 l 1,16,-1
 640 1280 l 1,17,-1
 896 1280 l 1,18,-1
 896 1152 l 1,19,-1
 768 1152 l 1,20,-1
 768 1024 l 1,21,-1
 384 1024 l 1,22,-1
 384 1152 l 1,23,-1
 256 1152 l 1,24,-1
 256 1024 l 1,25,-1
 0 1024 l 1,10,-1
EndSplineSet
EndChar

StartChar: ograve
Encoding: 242 242 172
Width: 896
GlyphClass: 2
Flags: W
LayerCount: 2
Fore
SplineSet
0 128 m 1,0,-1
 0 768 l 1,1,-1
 128 768 l 1,2,-1
 128 896 l 1,3,-1
 640 896 l 1,4,-1
 640 768 l 1,5,-1
 768 768 l 1,6,-1
 768 128 l 1,7,-1
 640 128 l 1,8,-1
 640 0 l 1,9,-1
 128 0 l 1,10,-1
 128 128 l 1,11,-1
 0 128 l 1,0,-1
128 1152 m 1,12,-1
 128 1280 l 1,13,-1
 384 1280 l 1,14,-1
 384 1152 l 1,15,-1
 512 1152 l 1,16,-1
 512 1024 l 1,17,-1
 256 1024 l 1,18,-1
 256 1152 l 1,19,-1
 128 1152 l 1,12,-1
256 128 m 1,20,-1
 512 128 l 1,21,-1
 512 768 l 1,22,-1
 256 768 l 1,23,-1
 256 128 l 1,20,-1
EndSplineSet
EndChar

StartChar: oacute
Encoding: 243 243 173
Width: 896
GlyphClass: 2
Flags: W
LayerCount: 2
Fore
SplineSet
0 128 m 1,0,-1
 0 768 l 1,1,-1
 128 768 l 1,2,-1
 128 896 l 1,3,-1
 640 896 l 1,4,-1
 640 768 l 1,5,-1
 768 768 l 1,6,-1
 768 128 l 1,7,-1
 640 128 l 1,8,-1
 640 0 l 1,9,-1
 128 0 l 1,10,-1
 128 128 l 1,11,-1
 0 128 l 1,0,-1
256 128 m 1,12,-1
 512 128 l 1,13,-1
 512 768 l 1,14,-1
 256 768 l 1,15,-1
 256 128 l 1,12,-1
256 1024 m 1,16,-1
 256 1152 l 1,17,-1
 384 1152 l 1,18,-1
 384 1280 l 1,19,-1
 640 1280 l 1,20,-1
 640 1152 l 1,21,-1
 512 1152 l 1,22,-1
 512 1024 l 1,23,-1
 256 1024 l 1,16,-1
EndSplineSet
EndChar

StartChar: ocircumflex
Encoding: 244 244 174
Width: 896
GlyphClass: 2
Flags: W
LayerCount: 2
Fore
SplineSet
0 128 m 1,0,-1
 0 768 l 1,1,-1
 128 768 l 1,2,-1
 128 896 l 1,3,-1
 640 896 l 1,4,-1
 640 768 l 1,5,-1
 768 768 l 1,6,-1
 768 128 l 1,7,-1
 640 128 l 1,8,-1
 640 0 l 1,9,-1
 128 0 l 1,10,-1
 128 128 l 1,11,-1
 0 128 l 1,0,-1
0 1024 m 1,12,-1
 0 1152 l 1,13,-1
 128 1152 l 1,14,-1
 128 1280 l 1,15,-1
 256 1280 l 1,16,-1
 256 1408 l 1,17,-1
 512 1408 l 1,18,-1
 512 1280 l 1,19,-1
 640 1280 l 1,20,-1
 640 1152 l 1,21,-1
 768 1152 l 1,22,-1
 768 1024 l 1,23,-1
 512 1024 l 1,24,-1
 512 1152 l 1,25,-1
 256 1152 l 1,26,-1
 256 1024 l 1,27,-1
 0 1024 l 1,12,-1
256 128 m 1,28,-1
 512 128 l 1,29,-1
 512 768 l 1,30,-1
 256 768 l 1,31,-1
 256 128 l 1,28,-1
EndSplineSet
EndChar

StartChar: otilde
Encoding: 245 245 175
Width: 896
GlyphClass: 2
Flags: W
LayerCount: 2
Fore
SplineSet
0 128 m 1,0,-1
 0 768 l 1,1,-1
 128 768 l 1,2,-1
 128 896 l 1,3,-1
 640 896 l 1,4,-1
 640 768 l 1,5,-1
 768 768 l 1,6,-1
 768 128 l 1,7,-1
 640 128 l 1,8,-1
 640 0 l 1,9,-1
 128 0 l 1,10,-1
 128 128 l 1,11,-1
 0 128 l 1,0,-1
0 1024 m 1,12,-1
 0 1152 l 1,13,-1
 128 1152 l 1,14,-1
 128 1280 l 1,15,-1
 512 1280 l 1,16,-1
 512 1152 l 1,17,-1
 640 1152 l 1,18,-1
 640 1280 l 1,19,-1
 896 1280 l 1,20,-1
 896 1152 l 1,21,-1
 768 1152 l 1,22,-1
 768 1024 l 1,23,-1
 384 1024 l 1,24,-1
 384 1152 l 1,25,-1
 256 1152 l 1,26,-1
 256 1024 l 1,27,-1
 0 1024 l 1,12,-1
256 128 m 1,28,-1
 512 128 l 1,29,-1
 512 768 l 1,30,-1
 256 768 l 1,31,-1
 256 128 l 1,28,-1
EndSplineSet
EndChar

StartChar: odieresis
Encoding: 246 246 176
Width: 896
GlyphClass: 2
Flags: W
LayerCount: 2
Fore
SplineSet
0 128 m 1,0,-1
 0 768 l 1,1,-1
 128 768 l 1,2,-1
 128 896 l 1,3,-1
 640 896 l 1,4,-1
 640 768 l 1,5,-1
 768 768 l 1,6,-1
 768 128 l 1,7,-1
 640 128 l 1,8,-1
 640 0 l 1,9,-1
 128 0 l 1,10,-1
 128 128 l 1,11,-1
 0 128 l 1,0,-1
0 1024 m 1,12,-1
 0 1280 l 1,13,-1
 256 1280 l 1,14,-1
 256 1024 l 1,15,-1
 0 1024 l 1,12,-1
256 128 m 1,16,-1
 512 128 l 1,17,-1
 512 768 l 1,18,-1
 256 768 l 1,19,-1
 256 128 l 1,16,-1
512 1024 m 1,20,-1
 512 1280 l 1,21,-1
 768 1280 l 1,22,-1
 768 1024 l 1,23,-1
 512 1024 l 1,20,-1
EndSplineSet
EndChar

StartChar: divide
Encoding: 247 247 177
Width: 896
GlyphClass: 2
Flags: W
LayerCount: 2
Fore
SplineSet
0 512 m 1,0,-1
 0 640 l 1,1,-1
 768 640 l 1,2,-1
 768 512 l 1,3,-1
 0 512 l 1,0,-1
256 128 m 1,4,-1
 256 384 l 1,5,-1
 512 384 l 1,6,-1
 512 128 l 1,7,-1
 256 128 l 1,4,-1
256 768 m 1,8,-1
 256 1024 l 1,9,-1
 512 1024 l 1,10,-1
 512 768 l 1,11,-1
 256 768 l 1,8,-1
EndSplineSet
EndChar

StartChar: oslash
Encoding: 248 248 178
Width: 1152
GlyphClass: 2
Flags: W
LayerCount: 2
Fore
SplineSet
0 0 m 1,0,-1
 0 256 l 1,1,-1
 128 256 l 1,2,-1
 128 768 l 1,3,-1
 256 768 l 1,4,-1
 256 896 l 1,5,-1
 768 896 l 1,6,-1
 768 768 l 1,7,-1
 896 768 l 1,8,-1
 896 896 l 1,9,-1
 1024 896 l 1,10,-1
 1024 640 l 1,11,-1
 896 640 l 1,12,-1
 896 128 l 1,13,-1
 768 128 l 1,14,-1
 768 0 l 1,15,-1
 256 0 l 1,16,-1
 256 128 l 1,17,-1
 128 128 l 1,18,-1
 128 0 l 1,19,-1
 0 0 l 1,0,-1
384 128 m 1,20,-1
 640 128 l 1,21,-1
 640 384 l 1,22,-1
 512 384 l 1,23,-1
 512 256 l 1,24,-1
 384 256 l 1,25,-1
 384 128 l 1,20,-1
384 512 m 1,26,-1
 512 512 l 1,27,-1
 512 640 l 1,28,-1
 640 640 l 1,29,-1
 640 768 l 1,30,-1
 384 768 l 1,31,-1
 384 512 l 1,26,-1
EndSplineSet
EndChar

StartChar: ugrave
Encoding: 249 249 179
Width: 896
GlyphClass: 2
Flags: W
LayerCount: 2
Fore
SplineSet
0 128 m 1,0,-1
 0 896 l 1,1,-1
 256 896 l 1,2,-1
 256 128 l 1,3,-1
 512 128 l 1,4,-1
 512 896 l 1,5,-1
 768 896 l 1,6,-1
 768 0 l 1,7,-1
 128 0 l 1,8,-1
 128 128 l 1,9,-1
 0 128 l 1,0,-1
128 1152 m 1,10,-1
 128 1280 l 1,11,-1
 384 1280 l 1,12,-1
 384 1152 l 1,13,-1
 512 1152 l 1,14,-1
 512 1024 l 1,15,-1
 256 1024 l 1,16,-1
 256 1152 l 1,17,-1
 128 1152 l 1,10,-1
EndSplineSet
EndChar

StartChar: uacute
Encoding: 250 250 180
Width: 896
GlyphClass: 2
Flags: W
LayerCount: 2
Fore
SplineSet
0 128 m 1,0,-1
 0 896 l 1,1,-1
 256 896 l 1,2,-1
 256 128 l 1,3,-1
 512 128 l 1,4,-1
 512 896 l 1,5,-1
 768 896 l 1,6,-1
 768 0 l 1,7,-1
 128 0 l 1,8,-1
 128 128 l 1,9,-1
 0 128 l 1,0,-1
256 1024 m 1,10,-1
 256 1152 l 1,11,-1
 384 1152 l 1,12,-1
 384 1280 l 1,13,-1
 640 1280 l 1,14,-1
 640 1152 l 1,15,-1
 512 1152 l 1,16,-1
 512 1024 l 1,17,-1
 256 1024 l 1,10,-1
EndSplineSet
EndChar

StartChar: ucircumflex
Encoding: 251 251 181
Width: 896
GlyphClass: 2
Flags: W
LayerCount: 2
Fore
SplineSet
0 128 m 1,0,-1
 0 896 l 1,1,-1
 256 896 l 1,2,-1
 256 128 l 1,3,-1
 512 128 l 1,4,-1
 512 896 l 1,5,-1
 768 896 l 1,6,-1
 768 0 l 1,7,-1
 128 0 l 1,8,-1
 128 128 l 1,9,-1
 0 128 l 1,0,-1
0 1024 m 1,10,-1
 0 1152 l 1,11,-1
 128 1152 l 1,12,-1
 128 1280 l 1,13,-1
 256 1280 l 1,14,-1
 256 1408 l 1,15,-1
 512 1408 l 1,16,-1
 512 1280 l 1,17,-1
 640 1280 l 1,18,-1
 640 1152 l 1,19,-1
 768 1152 l 1,20,-1
 768 1024 l 1,21,-1
 512 1024 l 1,22,-1
 512 1152 l 1,23,-1
 256 1152 l 1,24,-1
 256 1024 l 1,25,-1
 0 1024 l 1,10,-1
EndSplineSet
EndChar

StartChar: udieresis
Encoding: 252 252 182
Width: 896
GlyphClass: 2
Flags: W
LayerCount: 2
Fore
SplineSet
0 128 m 1,0,-1
 0 896 l 1,1,-1
 256 896 l 1,2,-1
 256 128 l 1,3,-1
 512 128 l 1,4,-1
 512 896 l 1,5,-1
 768 896 l 1,6,-1
 768 0 l 1,7,-1
 128 0 l 1,8,-1
 128 128 l 1,9,-1
 0 128 l 1,0,-1
0 1024 m 1,10,-1
 0 1280 l 1,11,-1
 256 1280 l 1,12,-1
 256 1024 l 1,13,-1
 0 1024 l 1,10,-1
512 1024 m 1,14,-1
 512 1280 l 1,15,-1
 768 1280 l 1,16,-1
 768 1024 l 1,17,-1
 512 1024 l 1,14,-1
EndSplineSet
EndChar

StartChar: yacute
Encoding: 253 253 183
Width: 896
GlyphClass: 2
Flags: W
LayerCount: 2
Fore
SplineSet
0 128 m 1,0,-1
 0 896 l 1,1,-1
 256 896 l 1,2,-1
 256 128 l 1,3,-1
 512 128 l 1,4,-1
 512 896 l 1,5,-1
 768 896 l 1,6,-1
 768 -256 l 1,7,-1
 640 -256 l 1,8,-1
 640 -384 l 1,9,-1
 128 -384 l 1,10,-1
 128 -256 l 1,11,-1
 0 -256 l 1,12,-1
 0 -128 l 1,13,-1
 256 -128 l 1,14,-1
 256 -256 l 1,15,-1
 512 -256 l 1,16,-1
 512 0 l 1,17,-1
 128 0 l 1,18,-1
 128 128 l 1,19,-1
 0 128 l 1,0,-1
256 1024 m 1,20,-1
 256 1152 l 1,21,-1
 384 1152 l 1,22,-1
 384 1280 l 1,23,-1
 640 1280 l 1,24,-1
 640 1152 l 1,25,-1
 512 1152 l 1,26,-1
 512 1024 l 1,27,-1
 256 1024 l 1,20,-1
EndSplineSet
EndChar

StartChar: thorn
Encoding: 254 254 184
Width: 896
GlyphClass: 2
Flags: W
LayerCount: 2
Fore
SplineSet
0 -256 m 1,0,-1
 0 1152 l 1,1,-1
 256 1152 l 1,2,-1
 256 896 l 1,3,-1
 640 896 l 1,4,-1
 640 768 l 1,5,-1
 768 768 l 1,6,-1
 768 128 l 1,7,-1
 640 128 l 1,8,-1
 640 0 l 1,9,-1
 256 0 l 1,10,-1
 256 -256 l 1,11,-1
 0 -256 l 1,0,-1
256 128 m 1,12,-1
 512 128 l 1,13,-1
 512 768 l 1,14,-1
 256 768 l 1,15,-1
 256 128 l 1,12,-1
EndSplineSet
EndChar

StartChar: ydieresis
Encoding: 255 255 185
Width: 896
GlyphClass: 2
Flags: W
LayerCount: 2
Fore
SplineSet
0 128 m 1,0,-1
 0 896 l 1,1,-1
 256 896 l 1,2,-1
 256 128 l 1,3,-1
 512 128 l 1,4,-1
 512 896 l 1,5,-1
 768 896 l 1,6,-1
 768 -256 l 1,7,-1
 640 -256 l 1,8,-1
 640 -384 l 1,9,-1
 128 -384 l 1,10,-1
 128 -256 l 1,11,-1
 0 -256 l 1,12,-1
 0 -128 l 1,13,-1
 256 -128 l 1,14,-1
 256 -256 l 1,15,-1
 512 -256 l 1,16,-1
 512 0 l 1,17,-1
 128 0 l 1,18,-1
 128 128 l 1,19,-1
 0 128 l 1,0,-1
0 1024 m 1,20,-1
 0 1280 l 1,21,-1
 256 1280 l 1,22,-1
 256 1024 l 1,23,-1
 0 1024 l 1,20,-1
512 1024 m 1,24,-1
 512 1280 l 1,25,-1
 768 1280 l 1,26,-1
 768 1024 l 1,27,-1
 512 1024 l 1,24,-1
EndSplineSet
EndChar

StartChar: OE
Encoding: 338 338 186
Width: 1024
GlyphClass: 2
Flags: W
LayerCount: 2
Fore
SplineSet
0 128 m 1,0,-1
 0 1024 l 1,1,-1
 128 1024 l 1,2,-1
 128 1152 l 1,3,-1
 896 1152 l 1,4,-1
 896 1024 l 1,5,-1
 640 1024 l 1,6,-1
 640 640 l 1,7,-1
 896 640 l 1,8,-1
 896 512 l 1,9,-1
 640 512 l 1,10,-1
 640 128 l 1,11,-1
 896 128 l 1,12,-1
 896 0 l 1,13,-1
 128 0 l 1,14,-1
 128 128 l 1,15,-1
 0 128 l 1,0,-1
256 128 m 1,16,-1
 384 128 l 1,17,-1
 384 1024 l 1,18,-1
 256 1024 l 1,19,-1
 256 128 l 1,16,-1
EndSplineSet
EndChar

StartChar: oe
Encoding: 339 339 187
Width: 1152
GlyphClass: 2
Flags: W
LayerCount: 2
Fore
SplineSet
0 128 m 1,0,-1
 0 768 l 1,1,-1
 128 768 l 1,2,-1
 128 896 l 1,3,-1
 512 896 l 1,4,-1
 512 768 l 1,5,-1
 640 768 l 1,6,-1
 640 896 l 1,7,-1
 896 896 l 1,8,-1
 896 768 l 1,9,-1
 1024 768 l 1,10,-1
 1024 384 l 1,11,-1
 640 384 l 1,12,-1
 640 128 l 1,13,-1
 768 128 l 1,14,-1
 768 256 l 1,15,-1
 1024 256 l 1,16,-1
 1024 128 l 1,17,-1
 896 128 l 1,18,-1
 896 0 l 1,19,-1
 512 0 l 1,20,-1
 512 128 l 1,21,-1
 384 128 l 1,22,-1
 384 0 l 1,23,-1
 128 0 l 1,24,-1
 128 128 l 1,25,-1
 0 128 l 1,0,-1
256 128 m 1,26,-1
 384 128 l 1,27,-1
 384 768 l 1,28,-1
 256 768 l 1,29,-1
 256 128 l 1,26,-1
640 512 m 1,30,-1
 768 512 l 1,31,-1
 768 768 l 1,32,-1
 640 768 l 1,33,-1
 640 512 l 1,30,-1
EndSplineSet
EndChar

StartChar: Ydieresis
Encoding: 376 376 188
Width: 896
GlyphClass: 2
Flags: W
LayerCount: 2
Fore
SplineSet
0 640 m 1,0,-1
 0 1152 l 1,1,-1
 256 1152 l 1,2,-1
 256 640 l 1,3,-1
 512 640 l 1,4,-1
 512 1152 l 1,5,-1
 768 1152 l 1,6,-1
 768 640 l 1,7,-1
 640 640 l 1,8,-1
 640 512 l 1,9,-1
 512 512 l 1,10,-1
 512 0 l 1,11,-1
 256 0 l 1,12,-1
 256 512 l 1,13,-1
 128 512 l 1,14,-1
 128 640 l 1,15,-1
 0 640 l 1,0,-1
0 1280 m 1,16,-1
 0 1536 l 1,17,-1
 256 1536 l 1,18,-1
 256 1280 l 1,19,-1
 0 1280 l 1,16,-1
512 1280 m 1,20,-1
 512 1536 l 1,21,-1
 768 1536 l 1,22,-1
 768 1280 l 1,23,-1
 512 1280 l 1,20,-1
EndSplineSet
EndChar

StartChar: circumflex
Encoding: 710 710 189
Width: 1024
GlyphClass: 2
Flags: W
LayerCount: 2
Fore
SplineSet
128 768 m 1,0,-1
 128 896 l 1,1,-1
 256 896 l 1,2,-1
 256 1024 l 1,3,-1
 384 1024 l 1,4,-1
 384 1152 l 1,5,-1
 640 1152 l 1,6,-1
 640 1024 l 1,7,-1
 768 1024 l 1,8,-1
 768 896 l 1,9,-1
 896 896 l 1,10,-1
 896 768 l 1,11,-1
 640 768 l 1,12,-1
 640 896 l 1,13,-1
 384 896 l 1,14,-1
 384 768 l 1,15,-1
 128 768 l 1,0,-1
EndSplineSet
EndChar

StartChar: tilde
Encoding: 732 732 190
Width: 1024
GlyphClass: 2
Flags: W
LayerCount: 2
Fore
SplineSet
128 896 m 1,0,-1
 128 1024 l 1,1,-1
 256 1024 l 1,2,-1
 256 1152 l 1,3,-1
 640 1152 l 1,4,-1
 640 1024 l 1,5,-1
 768 1024 l 1,6,-1
 768 1152 l 1,7,-1
 1024 1152 l 1,8,-1
 1024 1024 l 1,9,-1
 896 1024 l 1,10,-1
 896 896 l 1,11,-1
 512 896 l 1,12,-1
 512 1024 l 1,13,-1
 384 1024 l 1,14,-1
 384 896 l 1,15,-1
 128 896 l 1,0,-1
EndSplineSet
EndChar

StartChar: uni2010
Encoding: 8208 8208 202
Width: 640
GlyphClass: 2
Flags: W
LayerCount: 2
Fore
SplineSet
0 512 m 1,0,-1
 0 640 l 1,1,-1
 512 640 l 1,2,-1
 512 512 l 1,3,-1
 0 512 l 1,0,-1
EndSplineSet
EndChar

StartChar: uni2011
Encoding: 8209 8209 203
Width: 640
GlyphClass: 2
Flags: W
LayerCount: 2
Fore
SplineSet
0 512 m 1,0,-1
 0 640 l 1,1,-1
 512 640 l 1,2,-1
 512 512 l 1,3,-1
 0 512 l 1,0,-1
EndSplineSet
EndChar

StartChar: figuredash
Encoding: 8210 8210 204
Width: 640
GlyphClass: 2
Flags: W
LayerCount: 2
Fore
SplineSet
0 512 m 1,0,-1
 0 640 l 1,1,-1
 512 640 l 1,2,-1
 512 512 l 1,3,-1
 0 512 l 1,0,-1
EndSplineSet
EndChar

StartChar: endash
Encoding: 8211 8211 205
Width: 640
GlyphClass: 2
Flags: W
LayerCount: 2
Fore
SplineSet
0 512 m 1,0,-1
 0 640 l 1,1,-1
 512 640 l 1,2,-1
 512 512 l 1,3,-1
 0 512 l 1,0,-1
EndSplineSet
EndChar

StartChar: emdash
Encoding: 8212 8212 206
Width: 1024
GlyphClass: 2
Flags: W
LayerCount: 2
Fore
SplineSet
0 512 m 1,0,-1
 0 640 l 1,1,-1
 1024 640 l 1,2,-1
 1024 512 l 1,3,-1
 0 512 l 1,0,-1
EndSplineSet
EndChar

StartChar: quoteleft
Encoding: 8216 8216 207
Width: 384
GlyphClass: 2
Flags: W
LayerCount: 2
Fore
SplineSet
0 640 m 1,0,-1
 0 1024 l 1,1,-1
 128 1024 l 1,2,-1
 128 896 l 1,3,-1
 256 896 l 1,4,-1
 256 640 l 1,5,-1
 0 640 l 1,0,-1
128 1024 m 1,6,-1
 128 1152 l 1,7,-1
 256 1152 l 1,8,-1
 256 1024 l 1,9,-1
 128 1024 l 1,6,-1
EndSplineSet
EndChar

StartChar: quoteright
Encoding: 8217 8217 208
Width: 384
GlyphClass: 2
Flags: W
LayerCount: 2
Fore
SplineSet
0 640 m 1,0,-1
 0 768 l 1,1,-1
 128 768 l 1,2,-1
 128 640 l 1,3,-1
 0 640 l 1,0,-1
0 896 m 1,4,-1
 0 1152 l 1,5,-1
 256 1152 l 1,6,-1
 256 768 l 1,7,-1
 128 768 l 1,8,-1
 128 896 l 1,9,-1
 0 896 l 1,4,-1
EndSplineSet
EndChar

StartChar: quotesinglbase
Encoding: 8218 8218 209
Width: 384
GlyphClass: 2
Flags: W
LayerCount: 2
Fore
SplineSet
0 0 m 1,0,-1
 0 256 l 1,1,-1
 256 256 l 1,2,-1
 256 -128 l 1,3,-1
 128 -128 l 1,4,-1
 128 0 l 1,5,-1
 0 0 l 1,0,-1
0 -128 m 1,6,-1
 128 -128 l 1,7,-1
 128 -256 l 1,8,-1
 0 -256 l 1,9,-1
 0 -128 l 1,6,-1
EndSplineSet
EndChar

StartChar: quotedblleft
Encoding: 8220 8220 210
Width: 768
GlyphClass: 2
Flags: W
LayerCount: 2
Fore
SplineSet
0 640 m 1,0,-1
 0 1024 l 1,1,-1
 128 1024 l 1,2,-1
 128 896 l 1,3,-1
 256 896 l 1,4,-1
 256 640 l 1,5,-1
 0 640 l 1,0,-1
128 1024 m 1,6,-1
 128 1152 l 1,7,-1
 256 1152 l 1,8,-1
 256 1024 l 1,9,-1
 128 1024 l 1,6,-1
384 640 m 1,10,-1
 384 1024 l 1,11,-1
 512 1024 l 1,12,-1
 512 896 l 1,13,-1
 640 896 l 1,14,-1
 640 640 l 1,15,-1
 384 640 l 1,10,-1
512 1024 m 1,16,-1
 512 1152 l 1,17,-1
 640 1152 l 1,18,-1
 640 1024 l 1,19,-1
 512 1024 l 1,16,-1
EndSplineSet
EndChar

StartChar: quotedblright
Encoding: 8221 8221 211
Width: 768
GlyphClass: 2
Flags: W
LayerCount: 2
Fore
SplineSet
0 640 m 1,0,-1
 0 768 l 1,1,-1
 128 768 l 1,2,-1
 128 640 l 1,3,-1
 0 640 l 1,0,-1
0 896 m 1,4,-1
 0 1152 l 1,5,-1
 256 1152 l 1,6,-1
 256 768 l 1,7,-1
 128 768 l 1,8,-1
 128 896 l 1,9,-1
 0 896 l 1,4,-1
384 640 m 1,10,-1
 384 768 l 1,11,-1
 512 768 l 1,12,-1
 512 640 l 1,13,-1
 384 640 l 1,10,-1
384 896 m 1,14,-1
 384 1152 l 1,15,-1
 640 1152 l 1,16,-1
 640 768 l 1,17,-1
 512 768 l 1,18,-1
 512 896 l 1,19,-1
 384 896 l 1,14,-1
EndSplineSet
EndChar

StartChar: quotedblbase
Encoding: 8222 8222 212
Width: 768
GlyphClass: 2
Flags: W
LayerCount: 2
Fore
SplineSet
0 0 m 1,0,-1
 0 256 l 1,1,-1
 256 256 l 1,2,-1
 256 -128 l 1,3,-1
 128 -128 l 1,4,-1
 128 0 l 1,5,-1
 0 0 l 1,0,-1
0 -128 m 1,6,-1
 128 -128 l 1,7,-1
 128 -256 l 1,8,-1
 0 -256 l 1,9,-1
 0 -128 l 1,6,-1
384 0 m 1,10,-1
 384 256 l 1,11,-1
 640 256 l 1,12,-1
 640 -128 l 1,13,-1
 512 -128 l 1,14,-1
 512 0 l 1,15,-1
 384 0 l 1,10,-1
384 -128 m 1,16,-1
 512 -128 l 1,17,-1
 512 -256 l 1,18,-1
 384 -256 l 1,19,-1
 384 -128 l 1,16,-1
EndSplineSet
EndChar

StartChar: bullet
Encoding: 8226 8226 213
Width: 640
GlyphClass: 2
Flags: W
LayerCount: 2
Fore
SplineSet
0 384 m 1,0,-1
 0 640 l 1,1,-1
 128 640 l 1,2,-1
 128 768 l 1,3,-1
 384 768 l 1,4,-1
 384 640 l 1,5,-1
 512 640 l 1,6,-1
 512 384 l 1,7,-1
 384 384 l 1,8,-1
 384 256 l 1,9,-1
 128 256 l 1,10,-1
 128 384 l 1,11,-1
 0 384 l 1,0,-1
EndSplineSet
EndChar

StartChar: ellipsis
Encoding: 8230 8230 214
Width: 1152
GlyphClass: 2
Flags: W
LayerCount: 2
Fore
SplineSet
0 0 m 1,0,-1
 0 256 l 1,1,-1
 256 256 l 1,2,-1
 256 0 l 1,3,-1
 0 0 l 1,0,-1
384 0 m 1,4,-1
 384 256 l 1,5,-1
 640 256 l 1,6,-1
 640 0 l 1,7,-1
 384 0 l 1,4,-1
768 0 m 1,8,-1
 768 256 l 1,9,-1
 1024 256 l 1,10,-1
 1024 0 l 1,11,-1
 768 0 l 1,8,-1
EndSplineSet
EndChar

StartChar: guilsinglleft
Encoding: 8249 8249 216
Width: 640
GlyphClass: 2
Flags: W
LayerCount: 2
Fore
SplineSet
0 512 m 1,0,-1
 0 640 l 1,1,-1
 128 640 l 1,2,-1
 128 768 l 1,3,-1
 256 768 l 1,4,-1
 256 896 l 1,5,-1
 512 896 l 1,6,-1
 512 768 l 1,7,-1
 384 768 l 1,8,-1
 384 640 l 1,9,-1
 256 640 l 1,10,-1
 256 512 l 1,11,-1
 384 512 l 1,12,-1
 384 384 l 1,13,-1
 512 384 l 1,14,-1
 512 256 l 1,15,-1
 256 256 l 1,16,-1
 256 384 l 1,17,-1
 128 384 l 1,18,-1
 128 512 l 1,19,-1
 0 512 l 1,0,-1
EndSplineSet
EndChar

StartChar: guilsinglright
Encoding: 8250 8250 217
Width: 640
GlyphClass: 2
Flags: W
LayerCount: 2
Fore
SplineSet
0 256 m 1,0,-1
 0 384 l 1,1,-1
 128 384 l 1,2,-1
 128 512 l 1,3,-1
 256 512 l 1,4,-1
 256 640 l 1,5,-1
 128 640 l 1,6,-1
 128 768 l 1,7,-1
 0 768 l 1,8,-1
 0 896 l 1,9,-1
 256 896 l 1,10,-1
 256 768 l 1,11,-1
 384 768 l 1,12,-1
 384 640 l 1,13,-1
 512 640 l 1,14,-1
 512 512 l 1,15,-1
 384 512 l 1,16,-1
 384 384 l 1,17,-1
 256 384 l 1,18,-1
 256 256 l 1,19,-1
 0 256 l 1,0,-1
EndSplineSet
EndChar

StartChar: Euro
Encoding: 8364 8364 219
Width: 1024
GlyphClass: 2
Flags: W
LayerCount: 2
Fore
SplineSet
0 384 m 1,0,-1
 0 512 l 1,1,-1
 128 512 l 1,2,-1
 128 640 l 1,3,-1
 0 640 l 1,4,-1
 0 768 l 1,5,-1
 128 768 l 1,6,-1
 128 1024 l 1,7,-1
 256 1024 l 1,8,-1
 256 1152 l 1,9,-1
 768 1152 l 1,10,-1
 768 1024 l 1,11,-1
 896 1024 l 1,12,-1
 896 768 l 1,13,-1
 640 768 l 1,14,-1
 640 640 l 1,15,-1
 384 640 l 1,16,-1
 384 512 l 1,17,-1
 640 512 l 1,18,-1
 640 384 l 1,19,-1
 896 384 l 1,20,-1
 896 128 l 1,21,-1
 768 128 l 1,22,-1
 768 0 l 1,23,-1
 256 0 l 1,24,-1
 256 128 l 1,25,-1
 128 128 l 1,26,-1
 128 384 l 1,27,-1
 0 384 l 1,0,-1
384 128 m 1,28,-1
 640 128 l 1,29,-1
 640 384 l 1,30,-1
 384 384 l 1,31,-1
 384 128 l 1,28,-1
384 768 m 1,32,-1
 640 768 l 1,33,-1
 640 1024 l 1,34,-1
 384 1024 l 1,35,-1
 384 768 l 1,32,-1
EndSplineSet
EndChar

StartChar: trademark
Encoding: 8482 8482 220
Width: 1280
GlyphClass: 2
Flags: W
LayerCount: 2
Fore
SplineSet
0 1024 m 1,0,-1
 0 1152 l 1,1,-1
 384 1152 l 1,2,-1
 384 1024 l 1,3,-1
 256 1024 l 1,4,-1
 256 640 l 1,5,-1
 128 640 l 1,6,-1
 128 1024 l 1,7,-1
 0 1024 l 1,0,-1
512 640 m 1,8,-1
 512 1152 l 1,9,-1
 640 1152 l 1,10,-1
 640 1024 l 1,11,-1
 768 1024 l 1,12,-1
 768 896 l 1,13,-1
 640 896 l 1,14,-1
 640 640 l 1,15,-1
 512 640 l 1,8,-1
768 768 m 1,16,-1
 768 896 l 1,17,-1
 896 896 l 1,18,-1
 896 768 l 1,19,-1
 768 768 l 1,16,-1
896 896 m 1,20,-1
 896 1024 l 1,21,-1
 1024 1024 l 1,22,-1
 1024 1152 l 1,23,-1
 1152 1152 l 1,24,-1
 1152 640 l 1,25,-1
 1024 640 l 1,26,-1
 1024 896 l 1,27,-1
 896 896 l 1,20,-1
EndSplineSet
EndChar

StartChar: uni25FC
Encoding: 9724 9724 221
Width: 900
GlyphClass: 2
Flags: W
LayerCount: 2
Fore
SplineSet
0 0 m 1,0,-1
 0 900 l 1,1,-1
 900 900 l 1,2,-1
 900 0 l 1,3,-1
 0 0 l 1,0,-1
EndSplineSet
EndChar
